<svg
      xmlns="http://www.w3.org/2000/svg"
      width="1074.809"
      height="600.7"
      version="1"
    >
      <path
        fill="#fff"
        stroke="#d7141a"
        strokeDasharray="none"
        strokeMiterlimit="0"
        strokeOpacity="1"
        strokeWidth="1.4"
        d="M352.236.7l-1.39.025-1.3.807c-.341 1.3-1.613 2.951-2.612 3.805l.613 2.357-.774 1.244.063 1.598c-.983.232-2.464.932-3.135 1.722l1.195 1.762-1.832 1.955.823 1.502c1.333.11 2.247.792 3.308 1.48l.09.774c1.3.035 3.42-1.083 4.414-1.816l1.955.08.485 1.916-.764.635c-.83-.038-2.197.34-2.816.93l.26 1.343 1.413.797.092 1.814c1.294.662 2.667.01 3.828.377 3.815 1.207.723 1.635 7.114 2.201l1.869.165c2.408 1.11.772 4.773-.504 6.138l-.063 2.684-.697 1.08c-.953.755-3.592.53-4.64.258l-.565.93c-2.156.985-3.882.611-6.043.945-1.35.207-2.795 1.324-4.207.517l-2.043-1.894c-1.567.109-2.229 1.041-3.498 1.463-.205.068-2.002.25-2.322.29-.28.037-1.066.743-1.33.948l.671.723c.3 1.786-2.806 6.026-4.464 6.691-1.986.798-5.204 1.35-7.399 1.316-2.011 1.662-4.695 3.248-7.12 4.192-.23.089-.997-.036-1.214.054l-2.636 1.555c-1.024.864-1.77 2.707-3.2 3.043-.615.145-1.99-.134-2.539-.463-.943-.07-2.88 1.154-3.572 1.688-.625.01-1.647-.953-1.986-1.393l-2.084.133-.961-1.842c-1.86.148-6.188 2.618-7.323 4.08-.21.272-.555 1.57-.77 1.848-1.787 2.337-4.33 1.262-6.732.803l-.638-.121c-.51 2.07-1.021 3.429-2.338 5.24l.379 2.138 1.66 1.743.178 1.052c-.375.805-1.326 2.129-2.153 2.545-1.233.06-2.956-.155-4.062-.763l-.447 2.697-1.31 1.031-3.724.477-2.843-1.961c-6.666.05-5.69-2.415-10.397 1.193-.613.113-1.617-.393-2.05-.789l-.868.086c-1.064.649-1.44 1.502-1.922 2.563l-1.297.92c-.937-.02-1.757-.216-2.648-.46-1.143-1.308-2.21-1.998-3.72-3.013-1.537-.06-6.12 2.147-6.278 3.709-1.57.465-3.15.893-4.725 1.332l-1.505-.463-1.18.328-.639-.488c-.849.29-2.256.177-3.09-.114l-2.107 1.073c-.717 1.406-.295 1.02-1.5 1.842l-.139.86c.5.571 2.131 2.622 2.135 3.425l-.785 2.775.36 1.022-1.876-.168-.474.226-1.137 1.664L535.404 302.7h498.635a60.76 60.76 0 00-4.473-8.115c-.035-.052-.173-1.685-.191-1.842 1.392-2.137 3.082-3.98 4.518-6.08l-.192-1.32-1.273-.69-2.99.637-.598-.524c-.885-1.327 1.401-8.667 1.725-9.998l-1.075-2.8c-.8-.223-1.973-.11-2.752.095l-1.33-1.209-.806.313c-.156 1.442-.797 3.596-1.721 4.76-6.994 1.394-6.684-.181-12.344-3.256-2.217-1.207-4.255-2.021-6.314-3.498-1.327-.058-2.733-.012-4.04-.225-4.096-.674-3.404.132-5.954-2.266l-3.034-.277-.21.834c.978.881 1.655 1.84 2.466 2.838-2.526 1.26-2.525 2.206-4.724 2.914-2.046-1.134-4.045-2.347-5.791-3.922.043-1.951-.275-5.025-1.098-6.822-1.847-.782-5.126-1.624-7.035-.498l-1.907-1.02c-1.446-2.192.008-5.041-1.496-7.129-1.335-.87-2.784-1.52-4.42-1.107-1.116.854-2.124 1.414-2.556 2.861l.644.977-1.32 1-1.121-.407-.627-.8-1.12-.403-.86-1.298-1.377.488c-2.215-.91-2.252-1.204-4.082-2.873-.717-1.516.106-3.25 0-4.856-.668-.405-2.128-.896-2.34-1.664.04-.696.108-1.395.125-2.094-2.04.013-5.637-3.56-7.176-4.804-1.831.028-3.794.51-5.19 1.756-.36 1.21-.91 3.474-.722 4.763l.986.762c1.644-1.145 3.162-1.623 5.22-1.418.648 2.121 1.126 5.793.157 7.791-2.872.558-4.969-1.892-7.178-3.234l-.888.093c-1.114 1.371-9.653 7.841-11.041 8.623-1.097.619-2.497 1.274-3.795 1.274-1.279 0-2.529.396-3.723.396-2.207 0-2.48-.737-3.814-1.324-2.22-.977-3.912-.99-5.659-3.002-1.505-1.732-.426-2.328-2.996-3.517l-.652-1.416-2.316-1.162c-.954-1.293-.377-1.89-.602-2.688-.166-.596-.746-1.185-.906-1.78-.075-.277.084-1.163.025-1.486-.253-1.383-1.27-3.02-2.15-4.08l.008-1.039-.744-.703-.399-1.767-.902-.637c-.81-1.855-1.698-3.519-1.932-5.54-2.368-.501-4.602-1.609-6.472-3.11l-2.311.25-.08.88-.649.588-2.41-.603c-1.105-.93-2.66-3.055-2.867-4.543-1.971-1.073-7.654-4.47-8.039-7.102l.328-1.77c2.195-.72 4.78-.983 7.07-1.124 1.185-1.591 3.864-.94 5.602-2.87.894.445 2.151.714 3.147.698l1.875-.903c.526-.603.471-3.28 1.414-4.836l1.228-.304c.81.367 1.745.77 2.631.927l2.943-1.013c.148-2.027 1.031-6.79-.246-8.307-2.67-1.115-3.665-2.457-4.224-5.267.537-1.885 1.267-3.746 2.254-5.45.528-.912 1.5-1.463 1.681-2.609l-.715-1.484-2.732-.227c-1.13-2.847-4.675-4.063-7.166-5.643l-.809.782 1 5.445c-1.757 2.07-3.977 3.644-5.435 5.975-1.14.294-2.385.528-3.498.9-1.39.464-2.78 1.826-4.315 1.688-.78-.734-1.509-1.648-2.103-2.543-5.87 1.231-6.288 2.13-12.953.39-2.802.609-5.433 1.23-8.106 1.596a66.082 66.082 0 00-1.724 3.664c-.801.183-2.449.364-3.243.02.09-1.377-.15-3.162-.72-4.43l-2.063-.637-1.361.666-.461-.814c.932-.534 1.738-.959 2.725-1.346l-.108-.86-.617-.62c-.937-.593-2.632.276-3.537.574-1.214.401-3.454.12-4.371 1.187-.098 1.187.098 2.845.66 3.916l-.293.555-.932-.238-.68-1.141-1.708-.676-.618-3.578c.86-1.878 1.42-3.807 2-5.781l-.68-1.14-1.822-.14-1.396-1.058.094-.703c1.39-.048 2.924-.386 4.234-.828-.438-.579-1.288-1.121-1.97-1.34-2.213 1.094-4.74 1.841-7.098 2.545-4.284.304-14.323-9.013-17.832-12.55l.072-.88 1.121-1.174 1.111.227-.972-1.977c-1.063.2-2.687.248-3.48 1.096l-1.356-.709-1.637 1.404-.977-.584-1.205.492-2.49-2.492-2.36-.072c-.35-.484-.28-1.563-.08-2.08l-1.286-1.584c-2.385.64-5.431 1.019-7.362-.88l-1.875.913c-.47-.043-2.678-2.747-3.31-3.258-1.351-.08-3.666.138-4.932-.29-4.258-1.444-8.57-3.314-12.195-6.028-1.356-.123-3.774.504-4.69 1.603-.946 2.447-2.363 4.736-3.617 7.038 1.08 1.668 5.557 4.457 7.44 5.716 2.253 3.878-.665 5.722 3.556 10.7a17.569 17.569 0 00-.1 3.49l2.18 2.867c2.666.679 9.599 2.909 10.649 5.514l.767 4.603c-.215.99-1.094 2.916-2.101 3.38.654 2.141 1.916 4.371 3.144 6.226-.421.95-.91 1.89-1.45 2.78l-2.093.59c-2.393-1.358-2.871-4.264-4.252-6.447-.895.187-2.062 1.064-2.67 1.71l.442 2.025c-.536.63-2.312 1.223-3.069 1.41-3.166-.664-4.766-1.185-7.837.762-.49 2.006-1.323 4.197-3.096 5.414l-2.44-.75c-.197-.741-.976-1.924-1.732-2.223-1.1.605-2.347 1.601-3.086 2.63l-.447 2.136-2.485.299c-.48.827-1.308 1.91-1.619 2.802-.47 1.352-.657 3.038-1.24 4.325-.845 1.864-2.854 4.32-4.5 5.584l-2.86.171a158.343 158.343 0 01-4.505 8.204c-2.13.619-2.93.477-5.082.146-1.696-.26-3.033-1.19-4.233-2.478l-2.877.008c-1.676-1.675-3.604-3.203-4.341-5.551l-3.795-1.444-.582-.81.843-1.729-.25-.691c-.74-.47-3.623-2.499-3.695-3.45 1.038-2.917-.308-3.57-.59-5.65-.114-.853.254-3.513.813-4.314l-1.12-1.854.284-1.021c.089-1.23-2.663-3.428-3.576-4.344h-1.03l-1.228-.803-1.608-4.054c-3.149-.69-2.82-2.506-4.529-4.623-.583-.725-1.584-1.107-2.238-1.955-.836-2.764-.95-1.85-2.37-3.868-.883-1.251-1.634-2.75-2.42-4.074-.045-.078-.767-.636-.882-.728-2.362-.14-4.725-.024-7.08-.291-1.182-1.727-3.161-3.764-4.022-5.584-.958-2.036.566-4.481-.982-7.182-1.777-1.297-5.922-1.53-7.969-1.252l-4.277 3.154c-.372-.782-1.444-2.043-2.317-2.312l-.54-1.324.46-.584-1.33-1.74-1.652-.131.426-2.147-1.15-1.77-1.653-.132-1.15.841-1.496-.33c-.548-4.788-2.3-3.467-2.905-7.804.353-.508.73-1.007 1.057-1.53l1.63-.033 1.438 1.203 1.631-.03.414-.923-1.01-.74-.617-1.834 1.078-1.36 1.834.122.371-1.266 1.14.371.286-.558-.652-.787c.565-.455 1.787-.614 2.474-.49l.454-1.97 2.062.43c1.36-.433 3.952-1.54 4.895-2.709l-.301-.826-1.19-.723.192-1.238 1.535-.713c1.24 1.268 3.985 2.51 5.787 2.397 2.83-.74 3.266-4.772 6.756-6.418.246-.808.555-2.874.04-3.658.96-.837 1.744-1.767 2.532-2.754-.535-1.219-.85-2.732-.918-4.055l.645-.605 1.502.332c1.133-.57 3.357-1.086 4.63-.756.387-.874-.042-2.104-.39-2.846-2.13-4.552-4.425-4.89-7.488-8.17-2.089-2.238-3.09-5.076-6.162-6.361l-1.145-2.99c-4.884-3.294-6.055-.1-10.32-.782-2-1.612-5.095-2.677-7.672-2.682-1.868 1.382-2.473 5.788-2.53 7.983l-1.244 1.55c-1.182-.142-3.124.808-3.974 1.55-1.772-2.267-5.12-7.592-8.452-6.922l-1.828-1.33c-1.375-.04-2.71-.076-4.068-.346-.183.294-1.5 2.521-1.627 2.65-.82.813-2.254 1.575-2.937 2.463-1.232 1.604-1.322 6.265-2.475 6.936l-1.553-.668-2.285 1.86c-1.556-.452-3.165-.36-4.738-.112a12.046 12.046 0 01-1.819-1.944c1.585-2.068 1.597-5.274 1.922-7.734.385-2.902-1.212-6.855-2.263-9.672-2.383-2.008-5.672-1.146-8.272-.111-.687.275-1.308.917-1.994 1.187-.253.101-1.196.114-1.523.205-1.348.373-2.7.89-4.03 1.33l-.924 1.319-3.128-.701c.45-2.864-1.079-6.065-1.854-8.737-1.642-.462-2.771-2.735-3.496-4.093.957-3.718-2.897-8.354-5.305-6.176-.2.89-1.222 2.021-1.988 2.459-.701.17-1.907-.09-2.461-.563-1.772-.082-3.591 1.054-4.637 2.418l-1.884-.986-4.057.185c-.443-.25-2.52-1.254-2.598-1.73l.254-1.562c-1.295-1.53-6.155-2.529-8.098-2.477-3.959-4.374-5.94-3.99-11.21-3.38-1.224-1.373-4.805-.943-6.29-.392l-1.933-2.468c-1.215-.83-1.85 1.47-5.852-.998-.604-.374-1.448-.985-1.703-1.733l-1.65-.62-.99-2.696c-1.727-.603-2.867.876-4.043 1.906-.073 3.26-2.44 4.853-4.239 7.207-1.327-.358-2.035-.518-3.134-1.232-.77-1.752-.163-3.413-1.62-5.069 1.578-3.892.903-8.19-1.765-11.394-.066-.082-.261-.151-.354-.205-2.09-1.21-4.246-2.783-6.674-3.16-1.168-2.447-3.135-4.91-4.988-6.862.75-1.547-1.203-5.187-1.738-6.564l.652-3.44c1.36-1.485 2.785-2.843 3.643-4.705-2.36-2.254-2.78-1.44-2.772-4.75l-.826-1.304-3.498-.221-1.05-.879-.813-3.28-6.36 2.323-.209 1.24-.798.85c-.823-.111-2.082-.577-2.692-1.174.004-2.783.174-5.388-.35-8.106-1.01.162-4.22.847-4.947 1.653l-1.236 3.055 1.352 1.296-1.211.909c-1.09-.33-5.44-1.368-6.037-2.24l-.227-1.014 1.394-1.994-.628-.504-3.506-.211-2.783-1.895-.715 2.121c-1.105.375-2.205.788-3.319 1.127l-.527-.933c.407-.566-.073-1.893-.215-2.553l-.623-.615-.06-.934-2.096 1.584-.236 1.953c-.22.423-3.491.998-3.83 1.074l-2.583 4.715 1.366 1.625c.728.185 1.946-.274 2.463-.777l2.18.172c.114 1.278 1.35 3.26 2.099 4.234l-1.26.854c-.57.494.368 4.146.506 4.902-1.897 2.492-2.464 3.8-5.363 4.89l.353 1.41c.827.639 1.643 1.297 2.488 1.915l.268.69-1.033 2.847c.187 1.028 1.003 4.293.7 5.346-.32.257-.61.556-.911.834l-2.414.398c-.698.115-1.444.905-2.143 1.033-1.715.316-8.008-2.346-10.513-3.02l-.909 1.59c-.744-.07-1.853-.759-2.197-1.439l-1.783-.515c-1.125 3.616-4.524 2.612-7.02 1.29-.193 3.068-2.762 4.507-3.418 7.16-.333 1.347-.451 2.887-.666 4.262-.014.082-.384.72-.445.834l-1.644-.72c-3.249 1.76-4.137-.745-7.635-1.233l-1.69 1.198-1.324-.026-.187-1.392.285-.463c-.129-.538-.71-1.374-1.266-1.555l-2.931-.033c-2.43-1.995-4.203-3.344-7.342-2.838-.973-1.442-3.3-1.205-4.565-2.496.207-1.543.797-2.054 1.287-3.213 1.239-2.91.893-5.806 3.325-7.996 0 0 .416-.987.414-1.055l-.16-4.185c-.163-.705-1.584-1.449-2.18-1.649l-.96 1.822c-2.499.86-7.47 3.635-9.693 2.524l-.97-1.14.017-1.147c1.635-2.627 4.712-6.985 4.707-10.057l.553-.271-.363-.366.027-2.796c-2.202-1.71-3.585-3.828-4.902-6.254-.924.434-3.518 1.571-4.565 1.517l-.363-.912.506-.943-.137-.782-.646-.445c-1.17.319-3.907.218-4.692-.967l-.275-1.728 1.4-2.656-.77-1.942-1.08-.16c-.966 1.65-.576 4.085-1.763 5.418l-1.387-.033-1.879-1.828c-1.099-.188-1.653-.26-2.705-.106l-2.994 2.498c-3.11 1.007-5.773.514-7.87-2.094.102-.646-.19-1.672-.571-2.193l-2.776-1.039c-.837.34-2.414 1.244-3.279.879-.941-1.32-2.434-2.69-3.844-3.496z"
      ></path>
      <path
        fill="#d7141a"
        d="M535.404 300.7L236.916 499.692c.501.445.777.76 1.16 1.518l-.217 1.125c.613 1.043 1.046 1.836 1.967 2.627.897-.68 2.74-1.033 3.83-.78l-1.203 1.64c2.282 2.175 4.82 10.405 5.658 10.813l1.223-.052c.77.51 1.124 2.408 1.129 3.226l.613.498c.763-.013 3.378-.224 3.895-.902.85.272 2.166.88 3.029.67l2.012-2.002.51 1.637c.956.528 2.279 2.494 2.822 3.384l-.38 1.665 2.882 6.128c1.431.922.938.685 2.896.87.449.74 1.335 1.517 1.662 2.242.89 1.983.362 2.768 2.715 4.96-.071 1.174-.692 3.4-1.623 4.23 1.39 2.78 3 2.67 5.984 2.484 5.952-.5 10.944 6.616 14.354 10.36.091.1.511 1.032.596 1.206l2.412.676.568 1.476c1.146.334 2.53.783 3.703.961.794-.62 3.562.175 4.364.98.045.192.327 1.524.386 1.624.325.52 3.388 4.57 4.067 4.994l2.44.35c1.01.622 1.364 3.23 1.007 4.26l-1.162 1.146c-.889-.356-2.814-.509-3.64.133l-2.212 2.902c-.077.714 1.871 2.277 2.414 2.809l1.026.212 1.146-.492.701.676.15.67-1.042 2.2 1.816 2.198.918.147 1.045-.608.287 2.108 4.565-.094.037 1.861 2.36.51 2.753-1.693c1.247.425 3.552.127 4.07.324 1.015.378 3.331 1.347 4.31.41 2.103-.064 3.84 1.013 5.765 1.623.3.095 1.481.184 1.675.28.732.373 1.79 1.915 2.737 1.695.825-.693 2.615-1.102 3.656-.828.771 1.181 1.777 1.682 2.64 2.62.69.754 1.313 1.735 1.932 2.552.477.63 2.142.935 2.862 1.007l.978 3.772 1.502-.174c2.033-1.749 4.16-7.058 5.924-7.387l.695.186.705 1.658c.85-.38 2.197-1.461 2.553-2.365-.392-.58-1.702-2.809-1.438-3.545l.817-1.006c1.919.095 3.433-.228 5.021.793.636-.41 2.845-2.252 3.153-2.795.537-.947 2.493-5.33 2.332-6.49l-1.81-2.652c.473-1.66 2.881-1.422 4.24-1.643l2.105 2.961 1.281.41.684.783.027 1.317 1.314 1.564c.44-.27 1.126-.458 1.612-.656l.914.207 1.04 1.043 2.481-.064c1.039 1.03 1.797 1.898 3.078 2.572.585-1.725 5.48-3.249 7.098-5.713l1.602.934 1.45 4.923c1.16-.179 1.802-.334 2.765-1.18l.822.032c1.373 1.469 1.953 4.382 2.57 6.195 1.73-.178 4.39-.74 6.127-.277l.863-.887-.064-.89c.64-1.198 1.349-2.399 1.932-3.624-.171-.714-.616-1.8-.608-2.529.014-.932.466-2.013.6-2.947.157-1.092-.4-2.16.135-3.272l-.32-1.076-.764-.574c.469-2.18.755-5.253 2.193-6.996l-.172-1.441c.988-2.363 2.272-4.437 4.854-5.125l.394-.555c4.13.667 4.338-4.843 7.908-5.772-1.59-3.279-.954-3.943.621-6.619l-.01-.933-.796-1.239.47-.767-.088-.725 2.315-1.441 1.687.676 1.32-.456 1.51 1.317c1.422.476 3.486-1.585 5.157-.26l.232 1.399c1.294-.185 6.024.825 7.176 1.449.161.089 1.236 1.052 1.56 1.32 1.602.18 3.194.35 4.8.48l2.995-1.582-.17-.459.426-.886-.306-1.621c-.15-.128-1.274-1.106-1.362-1.14-1.005-.381-3.576-.638-4.107-1.77.011-2.284-.167-1.656.619-3.499l-.375-1.578c.864-2.095 2.167-4.443 2.517-6.685l1.606-1.463-1.393-1.852c-.022-.796-.343-4.103.198-4.642l1.166-.03.187-3.16.895-1.054c-.259-.515.277-1.812.535-2.24.144-2.26-1.597-6.017-2.768-7.823l1.096-1.355c-1.144-2.516-.508-3.31-.424-5.532.046-1.184-.127-2.5-.19-3.693-.03-.636.807-1.85 1.249-2.22 2.448-.723 2.627-3.206 2.46-5.538 1.627-.084 2.685-.402 4.098-1.404 1.73 1.562 3.48 1.567 5.655.959l.853.807c-.219.873-.162 2.334.246 3.156.964-.368 3.009-.109 3.912.217l1.744-1.172 1.112-.041.92.7c2.048.03 4.088-.184 5.93.95.34.59.434 1.743.171 2.375l-1.328.895 2.076.783c.025.881.455 2.326 1.096 2.974l-.037 2.682c.922.837 2.047 2.252 3.396 2.254.946-.345 1.094-1.274 1.717-1.889 2.757-2.707 5.957-1.32 9.217-.642l1.545-.92-.201-1.12.248-.679.756-.303 1.328-2.806-.883-2.405.508-1.476c1.303.535 2.599 2.605 2.808 3.94l.801.259 1.602-.42 1.693.691 1.006-1.476c2.058-.07 4.295.066 6.32.463l3.434 3.742 1.783.371c1.717 2.28 4.233 3.566 7.121 3.035l1.04.992.657.08 1.592-1.24.582 1.604 3.987 1.404c1.061 1.705.79 4.424 2.255 5.643 4.565 1.59 6.657 1.98 10.461 4.593 1.967-.388 4.355-.546 6.346-.226l1.813 2.36 3.043.474c1.182 1.007 5.7 5.613 6.062 6.492l3.35-.687c1.682.928 5.65 1.52 7.527 1.787 1.59-1.178 3.185-3.336 3.906-5.174.802.072 6.874.224 7.928.808l1.99-.418 1.315.985.224.857-1.367 1.198c.1 1.253 3.605 2.396 4.596 2.087l1.549 1.852 2.502.809.517 1.605 2.83-.908.664.842.801.213-.424 2.468 2.059 1.246.736-2.326c1.262.587 1.745.793 2.701 1.822l-1.283 1.817-.006 1.371c1.74 1.337 3.64 2.634 5.29 4.068.747.65 1.83 2.565 2.878 2.664v-1.14c.83 1.442 4.906 5.107 6.152 5.863 2.074 1.251 8.816 3.994 11.327 4.33 3.486.47 7.484-.194 10.964-.453 1.447-.108 2.55 1.089 3.827 1.383.37.087.598.017.976.03 2.051.061 5.062.817 6.922.64 1.456-.137 3.141-.945 4.576-.961 1.085-.012 6.417 2.097 7.61 2.549.057.024.555-.073.644-.084l2.377-2.735 1.041.215c.914 1.13 1.668 2.339 3.014 2.983.193-.082 1.064-.418 1.185-.51.945-.735 2.557-1.67 3.295-2.563.636-.765 1.013-1.836 1.621-2.63.498-.655 1.308-1.164 1.784-1.829 1.773-2.466 3.273-5.621 4.378-8.44 3.09-1.715 5.514.486 6.942.17l3.883-.853 2.72-2.947c2.013.311 3.654 3.09 5.25 4.17.275.19 2.304.63 2.674.844.745.432 1.684 1.48 2.35 2.066.568.498 3.096.706 3.775.584l2.219-1.756c3.651 1.527 5.323 2.185 6.498 6.506-.095 1.322-.375 3.945-1.01 5.152.302.614 1.468 2.38 2.274 2.438.807-.972 2.387-2.36 3.648-2.71l3.03.444.751 1.205c.64.417 2.009 1.104 2.81 1.069.186.873.892 1.96 1.417 2.656l1.266.533 2.515-.365 1.893 1.879c.51.03 4.38-1.84 6.04-2.02.935-.102 2.07.297 3.024.258 1.027-.04 2.067-.625 3.143-.662l3.172.027 1.533-.105c.504.266 2.275 3.766 2.967 4.568.066 1.297-.245 3.356-.953 4.487 3.206 2.182.796 9.011 1.068 12.167l1.11 1.694 1.081.22c1.04-2.246 3.753-7.551 4.112-9.76.25-1.437.292-2.974.494-4.435.166-1.194.255-2.182 1.035-3.168 1.41-1.786 3.82-2.636 4.236-5.013 1.097-6.252 3.252-12.573 8.13-16.92 1.701-1.516 3.253-2.551 4.706-4.395 2.44-3.096 4.15-5.794 7.38-8.232 1.908-1.443 5.622-3.806 7.669-4.346 1.792-.474 3.97-1.566 5.693-1.828.153-.024 2.718.186 3.037.21.108.006 2.336 1.017 2.756 1.198 6.199 2.641 13.358 9.97 20.272 9.512 9.178-.607 9.744-7.523 17.972-5.49 1.466 1.08 2.871 2.23 4.264 3.398 5.938 4.974 11.62-2.2 16.807-4.553 1.845-.838 9.064-2.063 10.685-3.578 1.742-1.626 4.163-7.198 4.971-9.697.897-2.755 3.647-6.737 6.451-7.883.539.126 4.998.756 5.508.762 1.493.02 7.416-1.504 8.463-2.219 1.832-1.254 3.742-4.055 5.137-5.844 1.932-2.473 9.883-12.164 12.955-13.435 1.896-.783 4.213-.27 6.256-.979 1.805-.626 3.78-2.21 5.632-2.262 1.965-1.933 3.721-4.024 5.618-6.021 7.274-7.657 4.61-12.92 7.775-21.633.051-.141.091-.353.176-.478 1.222-1.872 2.81-3.434 4.023-5.252.733-1.1 2.509-7.91 3.004-9.235-1.648-2.534.021-5.028.611-7.539.147-.62-.006-1.47.19-2.06.523-1.596 2.19-5.892 3.539-7.024 2.159-1.808 6.596-2.975 9.254-3.65 3.18-.807 6.23-2.128 9.369-3.104 2.176-.68 4.553-.955 6.68-1.671 2.713-.92 8.445-3.82 10.271-6.016.616-.739 1.191-2.183 1.664-3.049 1.309-2.396.655-5.709 1.7-8.277.427-1.053 1.212-1.76 2.039-2.485 1.132-.991 2.444-1.843 3.498-2.922 3.14-3.219 5.898-6.995 8.494-10.646.58-.815.899-1.787 1.426-2.637 3.805-6.107 5.643-6.137 11.857-7.896 2.135.765 4.45 1.868 6.697 2.21 2.29.35 4.992 1.039 7.28 1.116 1.379.044 23.453-7.978 24.375-8.43-.432-.11-.72-2.087-.7-2.457.351-1.537 2.04-2.074 2.21-3.676-.757-2.27-2.755-3.825-3.434-5.996-.066-.207-1.382-5.807-1.409-6.1-.089-.876.073-1.811 0-2.69-.317-3.717-1.488-7.558-2.248-11.217-.32-1.533-.153-3.724-1.152-5-1.303-1.058-3.006-1.709-4.582-2.254-1.943.28-4.217 1.918-6.053 1.71-5.378-2.4-3.132-4.863-5.691-6.988l-1.738-.445c-.453.457-1.383.94-2.036.98a23.629 23.629 0 01-1.716-1.132l-2.768-.078c.221 1.58.48 3.16.658 4.748l-1.623-.524-.773-1.117c-.88-1.278-1.932-5.844-2.08-7.414-.158-1.68.612-1.658-.066-3.834l-.768-2.5c-1.157-3.741-2.54-7.293-4.25-10.711H535.405z"
      ></path>
      <path
        fill="#11457e"
        fillOpacity="1"
        d="M227.674 94.214l-2.324 3.406.175.56.645.438.941-.244.178 1.111-.793 1.734-2.621 1.034c-.743 1.96-2.472 2.449-3.686 3.834-.943 1.072-1.788 2.63-2.6 3.826-1.019-.408-2.538-1.246-3.234-2.139l-2.359-.426c-.046-.087-.29-.646-.336-.687-.694-.597-1.76-1.323-2.332-2.01-.603-.723-.744-1.983-2.252-3.443-.928-.903-2.26-1.6-2.935-2.707l-.56-.918c.037 1.318-.12 4.754.614 5.634-.78.398-1.674 1.522-1.935 2.354-.792.522-2.966 1.698-3.985 1.576l-.859 1.238-1.336.16c-.939 1.263-.828 3.674-.299 5.067l-.66.988c-.693.426-2.42.454-3.184.385l-1.033.621-1.244-.107-1.35-3.346-.48-.37-3.184-.21-2.742 3.656.414 1.07c.014.512-2.398 2.288-2.851 2.663l.873 2.699c-.246.45-.538.893-.861 1.297l.146.888c-1.035 1.728-2.834 5.313-4.375 6.584l.396 1.293-.529.776c-2.863.944-5.616-1.07-8.387-.045-.785-2.573.024-1.95-2.322-2.762-2.928 3.112-6.513 5.23-10.996 4.18l-1.637-2.1-2.164-.728c-.258 2.277-.25 3.625-1.422 5.742l.24 1.824c-.434.945-.894 1.868-1.228 2.854l.924 3.742-.74 1.908-4.248 3.041-.594 2.094c-.123.103-1.65 1.424-1.719 1.443-1.517.369-5.58.905-6.418 2.387l-4.316-3.473-1.524-.172c-2.11-1.852-10.047-7.518-13.005-8.422.17 1.322-1.871 3.967-2.692 4.817l-1.213-2.498-.681-.06c-3.236 2.421-6.146 1.843-9.204 5.226l-4.093 4.51.324 1.505-.877.973c-1.648-.697-3.689-3.151-5.035-4.49-1.753 1.77-3.423 1.842-5.81 1.408l-1.003-.951-1.996.011-2.592 2.43-2.62-.635c-.99.994-2.875 1.83-4.17 2.254l-1.557-.45-.78.49-1.736-.407-4.082 1.934c.14 1.579-1.085 3.243-2.527 3.802-.815 1.64.534 5.281-.26 6.055l-.943.365-2.354-.45c-1.425.746-3.487 1.983-4.574 3.218l.13 1.92-.816.92c-2.214-.426-3.267.525-5.265.492l-.295 3.041c-.068.684.906 1.54.13 4.053l-1.138.738c-.802-.132-2.086.245-2.728.729l-.481 1.06c-.685.326-1.651 1.193-1.91 1.934l.055 1.431c-.69.345-1.236 1.657-1.32 2.36l1.099 3.312-.465 1.654c-.748-.328-2.206-.655-3.027-.435l-1.301 1.377 1.062 3.717a57.598 57.598 0 01-1.775 2.463l.104.888 1.728 1.766c-.695 1.953-1.531 3.807-2.422 5.676l-4.504-1.092-.629-2.127c-.769-.302-1.533-1.537-1.69-2.305l1.69-2.066-1.152-1.942a8.272 8.272 0 001.54-2.29c-1.078-1.819-3.038-1.636-4.499-2.674-1.227-.876-2.543-2.475-3.64-3.545l1.236-1.332c.43.495 1.488.96 2.15.86l.61-.556-1.561-3.996c-2.529.074-5.38.515-7.813-.338l-.796-1.365.117-2.293-.742-1.418.302-3.258-1.832-.673-.148-3.077-1.236-.2c-1.85 1.556-5.026-.866-8.188 1.618l-2.494-.066 2.41 2.682-.945 1.955c.236 1.155 1.454 2.668 2.426 3.285l.404 1.345c-.957.636-2.395 1.793-2.94 2.848l-.974.152-.547-.26-1.516.551-.506.624.608 1.027L0 193.82l1.19.797.865-.213 1.56 2.625c2.67.362 4.112 1.045 6.698 2.158l1.789 4.775.638-.994.63-.011c2.76 3.098 4.634 5.28 5.2 9.777l.864.55.27.946c-.361 1.555-1.78 3.66-3.073 4.594-.45 2.255.815 6.372 1.682 8.379l1.12.9 2.249.16.199 1.817 2.154-.06c1.465 1.096 1.44 1.266 2.436 2.907l1.465.76.595 1.133-1.89 3.252c2.765.943 7.491.782 9.343 1.883-.053 1.732.888 2.86 1.88 4.125l.92-.914 1.114.193c.89.592 1.763 1.798 2.15 2.781l1.923.742.619 1.412 1.238.092.485.969 1.257-.187c1.122 1.118 2.962 2.33 4.532 2.687l1.082-.195.962.619.022 1.203-1 1.24 1.033 1.166 4.75-2.215c.109 1.038 1.029 2.521 1.893 3.096l1.398.166.906 1.379c.11 1.058-.064 3.134-.72 4.047l-1.67.416c-.656.45-1.069 1.809-1.049 2.55l.951 2.2 1.139.523.928-.31.453.742c2.359 1.125 5.324 1.717 7.88 2.133.085.109.699.85.715.928.177.82.514 1.844.575 2.67.284 3.865-3.736 4.485-4.346 6.34-.622 1.898-.658 3.794-1.9 5.484l-1.979.78-.453 4.288c-.589-.62-2.416-.853-3.195-.842-1.004 1.647-.66 3.639-.606 5.471l-1.025 1.566.732 5.631-.262.475-9.77 5.605c-.937.54-.8 3.743-.413 4.565.426.901 1.25 1.907 1.804 2.756l1.643.511c.437 1.38 2.14 5.807 3.522 6.545 1.955.062 3.305 1.408 5.253 1.606l.829 1.59c1.69 1.046 3.434 1.128 5.337.566l.145 2.365c.527.502 1.503 1.825 1.47 2.623l-.714 1.26.205 2.18-1.613 1.431.427.96 1.05.193c.312.659-.303 2.098-.657 2.63l.316.899.942.127 1.32 1.734 2.129-.763 1.24.644-.252 1.018c.599 1.416 1.1 2.615.838 4.217l2.014 2.074c.412 1.662-1.091 3.36-.36 6.914.168.813 1.951 3.48 2.772 4.043l-.475 1.053c1.371 2.046 5.089 2.62 7.282 2.537l1.404 1.968c-1.448 4.047 1.114 6.014.242 8.659l-1.955 1.377 3.115 3.578 1.235 7.422c1.8 1.5 5.589 2.294 7.855 2.152l1.938 2.838c1.622.109 4.4 2.265 5.468 3.334.72 2.286.769 3.577.887 6.08.85.653 2.83 2.328 3.227 3.377l-.254 2.435.54.81c2.781 1.037 7.366.803 10.216.39l1.226 1.3c1.28-.117 3.406.57 3.838 1.95l1.064-2.178-.732-1.73.385-1.227 4.32.902.873.834 3.332.096c5.836.163 7.563 6.064 11.621 9.24l2.633.44c1.888 3.712-.98 5.392.078 8.103l.854 1.05 2.812.292.975.9c.072.758.581 2.659 1.346 3.069l2.63.445c.489.41.948 1.133 1.24 1.685l-.37 1.727.408 1.072c.765.261 3.272 1.367 3.521 2.264.008 1.382-.208 3.049.684 4.215 1.08.642 2.576 1.326 3.537 2.105 1.397 1.135 3.26 4.67 5.428 4.512l.695.936c.157 1.58-.307 3.61-.893 5.066l.448 1.24a36.467 36.467 0 015.738 4.53c1.003.667 1.883 1.26 2.6 1.497 2.58.855 7.294-1.598 8.796-1.039l9.39 7.717.603 1.969c1.25.163 4.76 4 4.914 5.578l2.265.695 1.42.782.123.502-1.043 1.06-.125.81 1.1 1.294c.227.885.822 4.09.164 4.884l.965 1.512-.526 5.147 1.944 1.763.926.139.752 1.437 1.52.354c.49.968 3.249 2.14 4.192 2.457.287.587 1.061 1.6 1.707 1.85l.832.02 2.204 2.444 1.642.15 1.096-1.105-.674-3.398.596-1.695c1.07.206 3.04-.492 3.96-.953l2.071 1.505c2.57.59.653-1.517 3.938-.132l.783-.696.99.094c.656.564 1.004.847 1.338 1.332L537.404 300.7 227.674 94.214z"
      ></path>
    </svg>