<?xml version="1.0" encoding="utf-8"?>
<!-- Svg Vector Icons : http://www.onlinewebfonts.com/icon -->
<!DOCTYPE svg PUBLIC "-//W3C//DTD SVG 1.1//EN" "http://www.w3.org/Graphics/SVG/1.1/DTD/svg11.dtd">
<svg version="1.1" xmlns="http://www.w3.org/2000/svg" xmlns:xlink="http://www.w3.org/1999/xlink" x="0px" y="0px" viewBox="0 0 1000 1000" enable-background="new 0 0 1000 1000" xml:space="preserve">
<metadata> Svg Vector Icons : http://www.onlinewebfonts.com/icon </metadata>
<g><g transform="translate(0.000000,512.000000) scale(0.100000,-0.100000)"><path d="M4623,5014.2c-205.2-21.1-534.9-70.9-690.2-105.4c-1900-427.5-3362.9-1923-3746.3-3832.6c-70.9-350.9-88.2-540.7-86.3-977.8c0-448.6,23-674.9,107.4-1044.9c279.9-1248.1,1039.2-2344.8,2105.2-3042.7c502.3-329.8,1123.5-582.8,1725.5-703.6c352.8-70.9,540.7-86.3,987.4-86.3c358.5,0,488.9,9.6,699.8,42.2c830.2,136.1,1576,450.6,2239.4,947.1c228.2,170.6,650,579,837.9,811c1083.3,1334.4,1391.9,3173.1,803.3,4781.7c-97.8,266.5-347,765-500.4,998.9C8741.2,3355.8,8235.1,3862,7681,4224.3c-590.5,387.3-1284.6,646.1-2022.7,755.4C5474.2,5006.6,4780.2,5029.6,4623,5014.2z M5629.5,4556c1794.6-256.9,3267-1581.7,3711.8-3337.9c99.7-398.8,130.4-651.9,130.4-1100.5c0-448.6-30.7-703.6-132.3-1104.3c-404.5-1591.3-1652.7-2837.5-3240.2-3238.3c-410.3-103.5-640.4-132.3-1092.8-132.3c-460.1,0-713.2,30.7-1113.9,132.3C2657.8-3908.7,1634-3101.6,1031.9-1972.3c-232,435.2-393,926-475.5,1461c-47.9,299.1-47.9,933.7,0,1252c274.2,1869.3,1652.7,3353.3,3481.8,3754c191.7,42.2,325.9,63.3,632.7,97.8C4814.7,4609.7,5420.6,4586.7,5629.5,4556z"/><path d="M4665.1,4053.7c-7.7-5.7-13.4-230.1-13.4-498.5v-485.1h95.9h95.9l3.8,312.5l5.7,310.6l209-310.6l209-312.5h94h92v498.5v498.5h-95.9h-95.9v-320.2v-322.1l-214.7,322.1l-212.8,320.2h-80.5C4713.1,4067.1,4670.9,4061.4,4665.1,4053.7z"/><path d="M2034.7,3072.1c-5.7-11.5-5.7-32.6,1.9-44.1c46-78.6,2241.3-3441.5,2258.5-3460.7c17.3-19.2,53.7,5.8,163,117L4600-172l-40.3,95.9c-138,318.3,90.1,671,433.3,672.9c63.3,0,140-15.3,197.5-42.2l95.9-40.3l143.8,141.9c111.2,109.3,136.1,145.7,116.9,163c-30.7,30.7-3437.7,2248.9-3472.2,2262.4C2059.6,3087.4,2042.3,3083.5,2034.7,3072.1z"/><path d="M4693.9,2454.7c-232-28.8-573.3-134.2-765-233.9l-49.8-26.9l92-63.3l92-63.3l117,44.1c251.2,95.9,454.4,136.1,713.2,147.6c308.7,13.4,504.2-13.4,774.6-101.6c354.7-118.9,628.9-291.4,883.9-557.9c393-412.2,594.3-916.5,592.4-1489.7c-1.9-264.6-36.4-460.1-126.5-722.8l-70.9-203.2l63.3-93.9l65.2-92l53.7,118.9c293.3,651.9,295.2,1355.5,5.7,1992c-218.6,477.4-669.1,928-1148.4,1146.5C5589.3,2435.5,5113.8,2510.3,4693.9,2454.7z"/><path d="M2843.7,1070.4c-86.3-201.3-159.1-465.9-186-684.5c-65.2-542.6,69-1104.3,377.7-1570.2c352.8-529.2,914.5-897.3,1558.7-1020c161-30.7,644.2-30.7,805.2,0c164.9,30.7,462.1,124.6,603.9,189.8l113.1,53.7l-92,65.2l-93.9,63.3l-203.2-70.9c-262.7-90.1-458.2-124.6-722.8-126.6c-1050.7-1.9-1932.6,732.4-2126.2,1773.5c-24.9,132.3-30.7,235.8-23,450.6c9.6,295.3,44.1,465.9,141.9,715.1c55.6,140,51.8,155.3-40.3,272.3l-42.2,53.7L2843.7,1070.4z"/><path d="M5535.6,550.9l-141.9-143.8l40.3-95.9c84.4-195.6,32.6-423.7-128.4-561.8c-138.1-116.9-356.6-143.8-525.3-63.3l-74.8,34.5l-141.9-141.9c-111.2-109.3-136.1-145.7-117-163c57.5-53.7,3454.9-2256.6,3481.8-2258.6c17.2,0,28.8,11.5,28.8,28.8c-1.9,26.9-2204.9,3426.2-2258.5,3481.8C5681.3,687,5644.9,662.1,5535.6,550.9z"/><path d="M8217.8,155.9v-498.5h373.9h373.9v95.9v95.9h-278h-278v115v115h249.2h249.2v95.9v95.9h-249.2h-249.2v105.5v105.4H8678h268.4v86.3v86.3h-364.3h-364.3V155.9z"/><path d="M1028.1,623.7c0-23,249.2-951,260.8-968.2c5.7-9.6,47.9-17.3,93.9-17.3h84.4l28.8,101.6c15.3,53.7,57.5,205.2,92,333.6c34.5,130.4,67.1,235.8,72.9,235.8c9.6,0,63.3-189.8,176.4-609.7c17.3-61.4,21.1-63.3,105.4-57.5l90.1,5.8l120.8,441c166.8,615.5,161,546.4,46,546.4c-111.2,0-86.3,46-191.7-370c-30.7-124.6-59.4-230.1-63.3-235.8c-5.7-3.8-46,130.4-92,299.1l-82.4,308.7l-107.4-5.8l-105.5-5.7l-88.2-316.4c-49.9-172.5-93.9-301-97.8-287.6c-5.7,15.3-40.3,161.1-76.7,320.2l-65.2,293.3h-99.7C1074.1,635.2,1028.1,629.5,1028.1,623.7z"/><path d="M4870.3,407.1c-209-95.9-256.9-350.9-95.9-511.9c128.5-128.5,316.3-128.5,444.8,0c161,161,113.1,416-95.9,511.9C5023.7,451.1,4970,451.1,4870.3,407.1z"/><path d="M4937.4-2814c-138-44.1-209-138-209-270.3c0-164.9,74.8-230.1,358.5-306.8c86.3-23,170.6-57.5,187.9-76.7c42.2-47.9,23-107.4-47.9-143.8c-145.7-74.8-345.1,7.7-345.1,141.9c0,34.5-11.5,40.3-95.9,40.3h-95.9v-67.1c0-88.2,38.3-161.1,122.7-235.8c76.7-67.1,164.9-90.1,322.1-86.3c214.7,5.7,372,151.4,354.7,329.8c-15.4,153.4-109.3,230.1-352.8,293.3c-187.9,47.9-216.7,63.3-216.7,120.8c0,61.4,49.9,86.3,170.6,86.3c107.4,0,174.5-44.1,174.5-113.1c0-53.7,28.8-65.2,115-49.8c70.9,11.5,76.7,17.3,76.7,74.8c0,78.6-67.1,180.2-149.5,228.1C5236.5-2806.3,5021.7-2787.1,4937.4-2814z"/></g></g>
</svg>