<?xml version="1.0" encoding="UTF-8" standalone="no"?>
<svg id="svg2" xmlns:rdf="http://www.w3.org/1999/02/22-rdf-syntax-ns#" xmlns="http://www.w3.org/2000/svg" height="800" width="591" version="1.1" xmlns:cc="http://creativecommons.org/ns#" xmlns:dc="http://purl.org/dc/elements/1.1/" viewBox="0 0 2.9549808 4.000014">
 <metadata id="metadata13">
  <rdf:RDF>
   <cc:Work rdf:about="">
    <dc:format>image/svg+xml</dc:format>
    <dc:type rdf:resource="http://purl.org/dc/dcmitype/StillImage"/>
   </cc:Work>
  </rdf:RDF>
 </metadata>
 <desc id="desc4">Flag of Germany</desc>
 <path id="black_stripe" d="m0.86562 0.000001-0.00078 0.00031l-0.002656 0.0017185-0.000625 0.000625-0.002188 0.003438-0.009531 0.0225-0.001875 0.004687-0.007656 0.016875h-0.000156l-0.005469 0.014219-0.004531 0.012969-0.001562 0.007187-0.00125 0.010156-0.001094 0.011875-0.003125 0.045782v0.003437l0.002656 0.006407 0.001563 0.002031 0.00078125-0.000155 0.00047-0.00095 0.00016-0.00203 0.00109-0.03906-0.00062-0.00109-0.00063-0.00234v-0.000938l0.00078125-0.0075 0.002187-0.006875 0.00125-0.001718 0.010625-0.006875 0.002969 0.0026565 0.000625 0.000781 0.007188 0.0040625 0.007031 0.005156 0.002344 0.000781h0.001094l0.013594-0.007031 0.00875-0.007344-0.0003125-0.00031-0.001875-0.00047-0.0025-0.000315-0.010781 0.00047-0.002812-0.00047-0.00125-0.00047-0.009219-0.008125-0.0003125-0.00031-0.008125-0.0084375-0.002031-0.029688 0.005625-0.01125 0.0025-0.003281 0.004844-0.00375 0.0004685-0.000315 0.006094-0.001406 0.006404-0.0040635 0.007813-0.015312-0.000156-0.00031-0.000625-0.00047-0.01047-0.004377-0.00297-0.000938-0.00172-0.000155zm0.065781 0.07625v0.000155l-0.0075 0.016719-0.001875 0.018125 0.000156 0.0009375 0.010625 0.011875 0.01125 0.013282 0.0004685 0.000781 0.004375 0.009063 0.003906 0.018906 0.011094 0.02875 0.001719 0.002187 0.005781 0.005781 0.009063 0.004218 0.005937 0.003594 0.014844 0.021094 0.032188 0.045625 0.00625 0.014062 0.00109 0.003906 0.000156 0.001719-0.0009375 0.005469-0.00328 0.005312-0.000625 0.0007815-0.027344 0.023125-0.00547 0.002812-0.00625 0.002813-0.005469 0.001562-0.006875-0.003281-0.006563-0.000625-0.033125 0.005625-0.002656 0.012188 0.0003125 0.002657v0.000937 0.004531l-0.0003125 0.001094-0.000625 0.00047-0.013125 0.007969-0.00078125 0.00031-0.002812 0.000315-0.00625-0.004375-0.0003125-0.004688-0.004531 0.0025-0.0004685 0.00047-0.001094 0.002031-0.001719 0.004375-0.001094 0.003907-0.00125 0.007187-0.0003125 0.00375 0.000625 0.002656 0.002656 0.005157 0.002812 0.001875 0.022188 0.011718 0.002031 0.000315 0.001875-0.000315 0.000625-0.00031 0.000625-0.000625 0.0003125-0.00047-0.000156-0.000155-0.0004685 0.00031h-0.000625l-0.0025-0.000625-0.0003125-0.00031 0.003125-0.00375 0.005156-0.005 0.012188-0.000938 0.00375-0.000155h0.019062l0.001406 0.00047 0.0009375 0.000625 0.001719 0.002343 0.001406 0.002657 0.000625 0.002031 0.0003125 0.002969v0.001406l-0.00078125 0.000781 0.001094 0.000315v0.000937l-0.0003125 0.003594-0.001562 0.0175-0.0004685 0.002031-0.003125 0.006875-0.005313 0.01125-0.00125 0.002969-0.000156 0.000781 0.000625 0.0025 0.005 0.013906 0.002656 0.005 0.00078125 0.0009375 0.005469 0.003437 0.0025 0.001719 0.006406-0.004062 0.001875-0.001406 0.00484-0.0009375 0.00125 0.00031 0.00344 0.001093 0.00125 0.001407 0.016094 0.033438 0.0004685 0.001719 0.000156 0.001562v0.00125l-0.0009375 0.003282-0.000625 0.002968-0.00109 0.001875-0.00141 0.001406-0.00109 0.0009375-0.00266 0.001094-0.00422 0.001094-0.00328-0.00047-0.00219-0.0025-0.00234-0.001563-0.0125-0.002969-0.004688 0.0009375-0.005937 0.003281-0.0075 0.00625 0.0003125 0.001094 0.001563 0.00031 0.001719-0.00031 0.010469 0.016562 0.006719 0.015938 0.001562 0.005469 0.00328 0.008594 0.00469 0.006718 0.00953 0.007657 0.00516 0.004375 0.00188 0.000625 0.00234 0.000155 0.00156-0.000625 0.00734-0.00375 0.0009375-0.000155 0.00125 0.013125-0.00422 0.001875-0.00406 0.001875 0.00203 0.006093 0.00391 0.009844 0.0025 0.003125-0.010781-0.0025-0.00266-0.000155-0.010469 0.002187-0.00141 0.00047v0.000781l-0.0003125 0.000315-0.00141 0.000625-0.00828 0.001562-0.025313-0.002031-0.007813-0.0009375-0.00375-0.001093-0.003125-0.001407-0.00458-0.00344-0.01406-0.01031-0.00734-0.00891-0.00078-0.00156-0.00032-0.00156 0.00016-0.00266-0.00547 0.00031-0.0064 0.00157-0.00907 0.00281-0.00422 0.0039-0.01093 0.01438-0.00516 0.01312-0.00265 0.00688-0.01891 0.05672-0.0003125 0.003282v0.006406l0.000156 0.010156 0.005781 0.015 0.004531 0.010938-0.004219 0.006718 0.01375 0.03125-0.010625-0.008906-0.003906-0.000625-0.007031-0.00125-0.002188 0.000155-0.002031 0.000155-0.001094-0.000155-0.01859-0.00844-0.00563-0.00312-0.00453-0.00672-0.00375-0.00703-0.00219-0.00313-0.00703-0.00453-0.00594-0.00062-0.00656 0.0025-0.00469 0.00359-0.00468 0.00469-0.00172 0.00234-0.00203 0.00438-0.00032 0.00156-0.0014 0.00828-0.00235 0.02094 0.010625 0.001875 0.002812-0.000781 0.007813-0.002969 0.002188 0.00125 0.00078125 0.000781 0.00125 0.0025 0.0003125 0.001094 0.0003125 0.007813-0.001094 0.018594-0.000625 0.004063-0.001719 0.00375-0.003594 0.00875-0.002344 0.004062-0.002812 0.004063-0.003437 0.00375-0.0009375 0.000937-0.0025 0.001875-0.003125 0.001563-0.001875 0.000155-0.003906-0.00047-0.005313-0.00125-0.003281-0.001406-0.000625-0.000781-0.001094-0.002031v-0.00125l-0.000156-0.00047-0.003281-0.005157-0.006094-0.00875-0.005-0.006406-0.003437-0.000937-0.004531 0.000155-0.0009375 0.000155-0.004062 0.002813-0.002031 0.000781-0.003906-0.004375-0.003125-0.004062-0.001562-0.003437-0.00125-0.003281-0.000625-0.002656-0.0004685-0.004688-0.0003125-0.010312 0.004844 0.003907 0.004688 0.000155 0.002031-0.00047 0.010625-0.003906 0.004531-0.001719 0.004531-0.002343 0.001406-0.002969 0.00125-0.004375 0.000625-0.001875 0.0003125-0.001563v-0.00047l-0.01688-0.03953-0.00281-0.00547-0.00265-0.00391-0.00141-0.00187-0.01438-0.00188-0.00265-0.00703-0.0011-0.00438-0.00171-0.01124 0.00046-0.00376 0.00219-0.00312 0.00047-0.00109 0.00016-0.0025-0.00125-0.00141-0.00485-0.0025-0.01422-0.00219-0.01593-0.00187-0.03094 0.00281-0.01578 0.00469-0.00625 0.000625-0.005625-0.000155-0.002812-0.000781-0.000156-0.000781-0.002188-0.000155-0.002969 0.00047-0.002031 0.000315-0.021094 0.005937-0.019688 0.006406-0.00875 0.001718-0.002344-0.000155-0.003594-0.001719-0.0025-0.001719-0.00078125-0.0009375-0.002969-0.001875-0.001875-0.000625-0.037188-0.002969-0.008281 0.0007815-0.00625 0.000625-0.006719 0.001563-0.014062 0.005-0.005469 0.003906-0.013594 0.009844-0.006094 0.005937-0.022969 0.023906-0.001406 0.004375 0.0025 0.003281 0.008281 0.005625 0.003437 0.002031 0.005 0.008907-0.005312 0.005625-0.009688 0.009687-0.004844-0.006875-0.016875-0.007656-0.007813 0.06375-0.000625 0.012968-0.004844 0.008593-0.0004685 0.001406 0.0009375 0.0025 0.00375 0.006875 0.001406 0.001719 0.001875 0.00125 0.010156 0.001406 0.035 0.001093 0.015469 0.001407 0.004375 0.0007815 0.006094 0.001406 0.011406 0.003125 0.001719 0.000781h-0.014375l-0.002656 0.000938-0.0004685 0.00047-0.0004685 0.00125-0.003281 0.010625-0.005625 0.02375-0.001875 0.027344-0.004375 0.010156-0.004063 0.007188-0.004219 0.011875 0.000156 0.004219 0.000625 0.004062 0.005781 0.004844-0.001563 0.017188 0.002656 0.034687-0.001094 0.00578-0.002813 0.00875-0.006875 0.021094-0.020625 0.03125-0.010469 0.014219-0.005469 0.020156-0.002812 0.02875-0.002031 0.020625-0.004062 0.035938-0.002969 0.00422-0.00125 0.00109-0.0004685 0.000155-0.00875-0.00234-0.001719-0.0009375-0.000156-0.00031-0.0009375-0.00125-0.00625-0.00219-0.026562-0.00453-0.032656-0.00187-0.002188-0.000155-0.007969 0.00141-0.005312 0.00172-0.010625 0.00859 0.002188 0.020156-0.002031 0.020468-0.003906 0.014531-0.00125 0.00594-0.001719 0.00984-0.0003125 0.00156 0.016875 0.012188 0.006719 0.0025 0.048438 0.01375h0.005469l0.004531-0.00313 0.0025-0.00547 0.002812-0.00516 0.003125-0.00203 0.00125 0.00109 0.0004685 0.0007815 0.007188 0.013907h2.3578l-0.00172-0.0025 0.0004686-0.00391 0.00187-0.011407 0.0004686-0.0025 0.00109-0.00234 0.00156-0.00188 0.00141-0.0009375 0.00781-0.00547 0.00375-0.00516 0.00859-0.015 0.0007812-0.00141 0.000625-0.00328-0.00109-0.038906-0.0007812-0.00156-0.011563-0.014844-0.00219-0.00234-0.00875-0.00594-0.00156-0.0007815-0.00234-0.00047-0.00156-0.000625-0.00438-0.00219-0.00719-0.00344-0.00406-0.00203-0.00906-0.00609-0.005-0.00328-0.010469-0.01-0.0007812-0.00359-0.00125-0.00203-0.0004686-0.00047-0.00844-0.010156-0.00797-0.00922-0.00766-0.00735-0.039063-0.025313-0.01875-0.0075-0.00922-0.0007815-0.00344-0.00141-0.0007813-0.0009375-0.00188-0.00328-0.0003125-0.000781-0.0001562-0.00328 0.00234-0.00547 0.00406-0.00547 0.00375-0.00625 0.0004687-0.00656-0.00172-0.00344-0.00547-0.019687-0.00141-0.00828-0.0001563-0.0007815 0.00125-0.00453 0.00734-0.00703 0.010625-0.00719 0.00406-0.00125 0.00469-0.0025 0.00844-0.00719 0.00609-0.00578 0.016296-0.017162 0.00125-0.001563 0.00297-0.004844 0.00328-0.011406 0.00281-0.015938 0.0003125-0.002656 0.00141-0.012813-0.00531-0.006718-0.000625-0.002031-0.00141-0.005312v-0.001094l0.0007813-0.004844 0.00156-0.010625 0.0009375-0.000625 0.0025-0.00125 0.012188-0.018437 0.005-0.010782-0.0004685-0.0025-0.00156-0.004532-0.00328-0.000625h-0.00406l-0.00531-0.016406 0.0009375-0.010156-0.0009375-0.003282-0.012812-0.036718-0.00625-0.024688-0.00172-0.011094-0.00813-0.01125-0.0009375-0.0007815-0.00406-0.010625-0.00359-0.009687-0.00125-0.005v-0.00047l0.00203-0.014219-0.00188-0.018906-0.00984-0.031875-0.00547-0.028594-0.00203-0.005625-0.00422-0.00375-0.00188-0.000781-0.00328-0.000781-0.00219 0.000157-0.0007813 0.000781-0.00187 0.002969-0.00422 0.004687-0.00547 0.004844-0.00109 0.000625-0.00156 0.000155-0.016875-0.00047-0.00516-0.0007815-0.0065-0.00206-0.0339-0.01218-0.002-0.00078-0.0079-0.00719-0.0101-0.00766-0.0292-0.01797-0.001-0.00093-0.0029-0.00579-0.0003-0.00203 0.00719-0.010625 0.00906-0.010312 0.00406-0.004375 0.00172-0.001563 0.00188-0.0009375h0.00203l0.0007812 0.00031 0.000625-0.00031 0.00156-0.001718 0.00203-0.002969 0.0001575-0.00125-0.0008-0.00172-0.0021-0.00343-0.0037-0.00516-0.0195-0.02062-0.0166-0.03407-0.0002-0.02093-0.0001-0.00188-0.0011-0.00328-0.0027-0.00438-0.0033-0.00343-0.0193-0.01938-0.017656 0.005312-0.044219 0.014688-0.00156 0.00047-0.00469 0.003906v0.000937l0.00344 0.007813 0.00219 0.003281 0.00219 0.002969 0.0004688 0.00125-0.0001563 0.00031-0.00125 0.0007815-0.0009375 0.00031-0.0075-0.001406-0.0019-0.00078-0.0017-0.00156-0.0056-0.00922-0.0005-0.00141-0.0002-0.00468-0.0032-0.00703-0.0007-0.00141-0.0004-0.00047-0.0063-0.00375h-0.00109l-0.00109 0.00125-0.00266 0.001719-0.00156-0.000155-0.0009375-0.001094-0.000625-0.003281 0.00844-0.0075-0.0001563-0.00047-0.011094-0.004219h-0.010938l-0.00141-0.002968h-0.0009375l-0.0009375-0.00047-0.00109-0.002032-0.00125-0.002968-0.00781-0.016406-0.00219-0.003594-0.0007813-0.0007815-0.030625-0.014688h-0.0007813l-0.00345 0.001719-0.00875 0.004844-0.0125-0.014062-0.00859-0.027812-0.0007813-0.004063 0.00391-0.008906-0.020625-0.030156-0.011094-0.001094-0.01875 0.007187-0.00125 0.000938-0.00687 0.006094-0.0003125 0.0007815-0.00297 0.007656v0.004844l-0.0004688 0.002187-0.00109 0.002188-0.00109 0.000937-0.00672 0.006094-0.00187 0.00125-0.00984 0.001719-0.02346-0.010625-0.025313-0.005157-0.029844 0.014532-0.023437 0.017968-0.015781 0.018125-0.00234 0.005 0.0004688 0.004219 0.00281 0.005781 0.0009375 0.00047h0.00234l0.00625 0.00125 0.00172 0.0007815 0.00141 0.00125v0.001094l-0.00188 0.000938-0.005 0.000937-0.00578-0.00047-0.00531-0.001875-0.01125-0.007657-0.0001562-0.00031-0.0001563-0.0125 0.00156-0.009375 0.01375-0.032344 0.00469-0.00375 0.0447-0.01641 0.0155-0.00968 0.01625-0.004062 0.00766-0.00047h0.0003125l0.00141 0.000781 0.00125 0.003281 0.00219 0.003437 0.00109 0.0009375 0.000625 0.00031 0.00516 0.00031 0.014687-0.00047 0.02125-0.001563 0.00937-0.0025 0.00188-0.001094 0.012812-0.008593 0.0004688-0.00047-0.0001562-0.0009375-0.0003126-0.000625-0.0006249-0.00031-0.00672-0.000781-0.00906 0.00031-0.00656 0.0007815-0.021562 0.001407-0.036406 0.000937-0.017812-0.002031-0.020313-0.002656-0.00234-0.00047-0.00422-0.001875-0.00875-0.007188-0.011094 0.019062-0.013594 0.026875-0.021094 0.039688-0.00297 0.004688-0.00234 0.002812-0.00313 0.003281-0.00266 0.002187-0.00234 0.001719-0.00578 0.003594-0.0175 0.010937-0.00813 0.005625-0.005 0.004531-0.00141 0.002343-0.00984 0.018906-0.0075 0.017032-0.014688-0.002032-0.020781-0.003125-0.034844 0.013906-0.00641 0.002031-0.00281 0.000781-0.00453 0.000315-0.00516-0.000155-0.00578-0.0007815-0.00469-0.001093-0.00375-0.001094-0.00313-0.001406-0.0007812-0.000155-0.017031 0.000625-0.00281 0.000155-0.00266 0.000155-0.00109 0.00031-0.037813 0.03125-0.00875 0.011875-0.00313 0.00625-0.000625 0.0025 0.0001563 0.002657 0.0007812 0.004375 0.0003125 0.00031 0.0003125-0.000155 0.00859-0.010469 0.00375-0.004688 0.00375-0.005157 0.00297-0.005156 0.00656-0.006563 0.00141-0.00125h0.00125l0.00109 0.001093 0.00313 0.005313 0.0003125 0.00125-0.0004687 0.005781-0.01375 0.021406-0.0007813 0.001094-0.00234 0.002188-0.00172 0.001094-0.00422 0.001406-0.00906 0.005157-0.00203 0.001875-0.000625 0.000937-0.00453 0.009219-0.00281 0.027969-0.00172 0.005-0.00734 0.012656-0.00391-0.002031-0.00672-0.003906-0.00297-0.002344-0.000625-0.001094 0.0003125-0.004531-0.00625-0.002813-0.011875-0.005156-0.00812 0.001875-0.0007812 0.001406-0.00219 0.001563-0.00609 0.004062-0.000625 0.000315-0.00266 0.00031-0.00281-0.000937-0.00313-0.001563-0.00297-0.002656-0.00172-0.004062-0.0001563-0.002812 0.00109-0.009375-0.016875-0.018906-0.00172-0.001875-0.00141-0.000938-0.024687 0.00125-0.00328 0.000315-0.010938 0.0025-0.00219 0.000625-0.005 0.002187-0.014844 0.00875-0.022656 0.015625-0.00219-0.000155-0.00156-0.000155-0.0025-0.00125-0.000625-0.003907 0.000625-0.005157v-0.000937l-0.00109-0.002657-0.00156-0.002031-0.00203-0.001718-0.0025-0.00125-0.00172-0.000155-0.00438 0.001094-0.00109 0.000155h-0.00953l-0.00219-0.00031-0.00266-0.001719-0.00125-0.001094-0.00203-0.002656-0.00188-0.003125-0.00297-0.005469-0.00344-0.008281-0.000625-0.002656v-0.001407l0.0003125-0.002343 0.0009375-0.002969 0.0007813-0.001719 0.00125-0.001406 0.015937-0.016875 0.00234 0.001719 0.00156 0.00047 0.011094 0.002031 0.0025-0.000938 0.0025-0.001562 0.00219-0.001875 0.013125-0.016406 0.014844-0.01375 0.01625-0.01125 0.00328-0.002343 0.012969-0.010625 0.0004688-0.00047 0.0001562-0.00047-0.00375-0.028281-0.00313-0.033594-0.000625-0.011562 0.0003125-0.001563 0.00219-0.004062 0.00141-0.017813-0.040938 0.001719-0.00594 0.001563-0.0125 0.009688-0.00875 0.007813-0.00578 0.006875-0.00359 0.003594-0.00937 0.0075-0.00266 0.001563-0.00375 0.001562-0.00266 0.000938-0.00188 0.000155-0.013437 0.000625-0.00313 0.000155-0.00281-0.000781-0.00125-0.000781-0.00203-0.001719-0.0101-0.01089-0.0007-0.0014 0.0003-0.00031-0.0012-0.00266-0.0023-0.00359-0.0019-0.00156-0.0074-0.00485-0.0037-0.00203-0.062-0.03109-0.00859-0.002343-0.00594-0.001708-0.00313-0.00047-0.00281 0.000155-0.00516 0.0009375-0.022812 0.01125-0.00219 0.0025-0.011563 0.025312-0.00172 0.00625-0.00672-0.008906 0.000625-0.003125 0.00281-0.005625 0.00609-0.005156-0.00375-0.018906-0.0007813-0.002969 0.00516-0.007969 0.00234-0.003906-0.00719-0.007031-0.00328-0.002657-0.0075-0.005-0.00234-0.00031h-0.0025l-0.00188 0.00031-0.019062 0.00375-0.025625 0.006093-0.00375 0.00125v0.00047l-0.00953 0.004063-0.00141 0.0009375-0.00344 0.000781-0.01 0.001563-0.00141-0.00047-0.0025-0.001406-0.00172-0.002032-0.00141-0.002343-0.00359-0.007032 0.000625-0.000625 0.00141-0.0007815 0.00156-0.00031h0.00313l0.0009375 0.00125 0.00109 0.000937 0.00219-0.000625 0.00875-0.004218 0.012812-0.006719 0.00812-0.004532 0.00516-0.004531 0.00313-0.003594 0.0009375-0.00125 0.00844-0.014375 0.000156-0.002343 0.000156-0.026875 0.0007812-0.015156 0.0003125-0.010782-0.016875-0.052968-0.00531-0.009844-0.00875-0.005938-0.00516-0.003281-0.000625 0.00047-0.0007813 0.001562-0.0009375 0.0025 0.0004685 0.001094-0.00812 0.017344-0.0004686 0.000625h-0.0004685l-0.00266-0.000315-0.00438-0.00125-0.005-0.002656-0.0296-0.03342-0.0166-0.00687-0.0214-0.00875 0.0052-0.00938 0.002-0.003281-0.0108-0.003906-0.00234 0.00047-0.025781 0.022968-0.00469 0.002032-0.00656 0.001875-0.00687 0.002812-0.00547-0.002343-0.012969 0.0025-0.0004685 0.003125-0.0007812 0.0009375-0.00734 0.006406-0.00516 0.00047-0.0234-0.00218-0.0035-0.00891-0.0008-0.00234-0.0001-0.00203 0.0011-0.00188 0.0019-0.0025-0.0015-0.00312-0.0103-0.00485-0.0148-0.00609-0.00359-0.00125-0.00203-0.000315-0.00672-0.000155-0.00656 0.001875-0.00828-0.000625-0.00437-0.00047-0.00344-0.002031-0.00219-0.001406 0.000156-0.000938-0.0046-0.003281-0.0154-0.007188-0.0013-0.00047-0.0028-0.000782-0.0136-0.00125-0.0203-0.001406-0.00266-0.000155-0.0039 0.00047-0.00344 0.000625-0.02719 0.001406-0.00609-0.004062-0.00203-0.000938-0.00344-0.00047-0.00906-0.000155zm-0.035 0.079375-0.004219 0.001562-0.001563 0.000625-0.008281-0.00047h-0.0025l-0.009688 0.001875-0.002812 0.000937-0.002188 0.001719-0.002656 0.002812-0.002031 0.003593-0.002656 0.006407-0.0003125 0.004062 0.0004685 0.002188 0.00078125 0.001406 0.0009375 0.000937 0.02 0.009844 0.004219 0.001094 0.004844 0.00031 0.01625 0.000625 0.002188-0.000155 0.001094-0.00047 0.009219-0.019218-0.00296-0.01203-0.00078-0.00141-0.00453-0.00312-0.00563-0.00203-0.002188-0.00047-0.001563-0.00031-0.003437-0.00031zm1.4592 0.016875-0.015156 0.001406-0.0225 0.006406h-0.00406-0.0001563l-0.00281 0.001719-0.00891 0.007188-0.00641 0.0075-0.00109 0.001718-0.015 0.037188-0.0003124 0.001094-0.0004688 0.004375h0.000625l0.0025-0.0007815 0.00109-0.0009375 0.015-0.014375 0.00312-0.008438-0.0007812-0.002968-0.00125-0.004531-0.0001562-0.000625 0.0003125-0.000625 0.00828-0.011718 0.00516-0.001406 0.0004688 0.000155 0.00109 0.002187 0.0007813 0.005938-0.0001562 0.001562-0.0006251 0.002969-0.00156 0.005-0.00375 0.006719-0.00141 0.001875-0.00109 0.002812-0.00188 0.010156 0.0003125 0.005312 0.013906-0.006719 0.010312-0.005937 0.034219 0.014062 0.0007812 0.000155h0.000625l0.00937-0.00125 0.00922-0.00375 0.000625 0.025938-0.000625 0.014062-0.0007813 0.00047-0.00172 0.000155-0.00844 0.000155-0.013437-0.004375-0.00359-0.001563-0.019844-0.011718-0.00125-0.00125 0.0001563-0.001718 0.00156-0.015625-0.015625 0.000625-0.016563 0.000625-0.00547 0.00125-0.016563 0.004844-0.00453 0.0025 0.00297 0.013282 0.00234 0.004375 0.01-0.00047 0.00797 0.000781 0.0125 0.01125-0.00422 0.008281-0.00125 0.000625-0.01125 0.003906-0.00578 0.001094-0.00625 0.00125-0.00578 0.012968v0.002657l0.0001562 0.0007815 0.00172 0.000937 0.026562 0.005781 0.00344 0.000625-0.00719 0.004532-0.029531 0.014375-0.0007812 0.001094-0.0007812 0.002031-0.00219 0.012187 0.0001563 0.005313 0.00844 0.024844 0.000625 0.00125 0.0775 0.025938 0.00641-0.004844 0.00125-0.001562 0.0007812-0.001407 0.0001563-0.000625-0.0004688-0.002968-0.00203-0.004688-0.00422-0.005-0.0004687-0.000155h-0.00281l-0.0007812 0.0009375-0.0004687 0.0009375 0.0003124 0.00125-0.0003124 0.000625-0.00313 0.002812-0.00391 0.001875-0.00203 0.000155-0.00188-0.002032-0.0001562-0.006094 0.020938-0.022188 0.016406-0.015781 0.00531-0.003906 0.00156-0.000625 0.050312-0.006094 0.00203 0.00031 0.00703 0.011562 0.0001562 0.00047v0.002343l-0.0009375 0.002188-0.0003125 0.000625-0.00391 0.002969-0.0003126 0.00031-0.00484 0.002344v0.007813l0.010625-0.002812 0.00453-0.008906 0.00609-0.0125-0.00344-0.008281-0.00891-0.014375-0.00641-0.005157-0.00641-0.004531-0.0004687 0.000781-0.00109 0.00047-0.00328 0.00047-0.00625 0.00031-0.0009375-0.000155-0.00141-0.0009375-0.00203-0.001875-0.00516-0.005937-0.00547-0.010469-0.00125-0.003125-0.00156-0.005625-0.000625-0.007343 0.000625-0.002813 0.0009375-0.001719 0.0007812-0.001094 0.0004688-0.000625 0.00797-0.008906 0.010469-0.00875 0.00281-0.001562 0.0009375-0.000155 0.00313-0.002188 0.00281-0.005781 0.0007813-0.005313-0.00125-0.010625-0.00203-0.0025-0.00344-0.003125-0.00703-0.004687-0.00125-0.00047h-0.00234l-0.00891 0.000781-0.00203 0.000315-0.011406 0.002343-0.00156 0.000625-0.010156 0.003282-0.014531 0.002656-0.00313-0.00031-0.00516-0.00125-0.00203-0.000625-0.00234-0.001563-0.00156-0.001094-0.00406-0.004219-0.00375-0.004844-0.00266-0.005469-0.00203-0.0075-0.0007813-0.004375 0.0003126-0.001562 0.00172-0.005157 0.00172-0.0025 0.0007812-0.00047 0.00281-0.00125 0.00187-0.000625 0.00203-0.000155 0.00141-0.000625 0.00203-0.001719 0.00125-0.0025 0.00172-0.006719v-0.000315l-0.00188-0.0025-0.00125-0.001406zm-1.5098 0.005-0.002031 0.000781-0.012344 0.01125-0.001563 0.002031-0.001875 0.004688-0.000156 0.004062-0.000625 0.002343v0.000155 0.001093l0.001563 0.00375 0.006094 0.009844 0.003281 0.005 0.003594 0.005625 0.0009375 0.00047 0.001719 0.00031 0.005625-0.000155h0.0004685l0.005938-0.002969 0.0004685-0.000625 0.001563-0.00375-0.000156-0.00047-0.0004685-0.00031-0.005938-0.002969-0.005156-0.007968-0.006406-0.017656-0.000625-0.00375 0.00078125-0.0025 0.001406-0.0025 0.005156-0.005-0.0004685-0.000625-0.00078125-0.000155zm0.09107 0.02656-0.03156 0.01235-0.00812 0.00343l-0.00078125 0.002031 0.0003125 0.000781 0.005156 0.004219 0.011562-0.006094 0.018281-0.004531 0.002344-0.001406 0.001719-0.002188 0.0009375-0.003125 0.0009375-0.005-0.00078125-0.00047zm1.3234 0.022968-0.00906 0.052032-0.000625 0.005157-0.0001562 0.002656 0.0004687 0.001719 0.0004688 0.002656h0.0001562l0.000625 0.001562h0.0004687l0.0007813-0.00125 0.0009375-0.003437 0.00547-0.030469 0.00391-0.019531 0.011563-0.005781-0.015-0.005313zm-1.3683 0.019532-0.00125 0.000155-0.001094 0.000781 0.0003125 0.0009375 0.00125 0.002032 0.0009375 0.000625 0.007969 0.005937 0.001406 0.000938h0.004375l0.0025-0.000625 0.000625-0.001094v-0.002188l-0.00375-0.005781-0.000625-0.000937-0.0004685-0.000315-0.001719-0.00047-0.003281 0.0009375-0.007188-0.0009375zm0.0525 0.013594-0.002812 0.00047-0.011094 0.003437-0.001563 0.00047-0.012969 0.005313-0.001875 0.001094-0.001094 0.00125-0.0003125 0.001407 0.000156 0.005625 0.00078125 0.0025 0.000625 0.001562 0.00125 0.001563 0.000625 0.00047 0.003437 0.005 0.002812 0.0025 0.001563 0.00047l0.00329-0.00015 0.00516-0.00109 0.00437-0.00125 0.0011-0.00078 0.00187-0.00188 0.00547-0.01234 0.00297-0.00703 0.00047-0.00735-0.00125-0.00062-0.00297-0.00063zm0.70953 0.010625-0.0007813 0.000315-0.00172 0.00125-0.00391 0.004531-0.00297 0.004219-0.00188 0.003125-0.00344 0.007656-0.00172 0.005-0.0004685 0.001719-0.00156 0.017031 0.000625 0.002656 0.0007813 0.001094 0.00781 0.005312 0.00125 0.000625 0.00188 0.00031 0.0003125-0.00031-0.0003125-0.00031v0.00031h-0.0003125l-0.00203-0.0007815-0.00469-0.002969v-0.003125l0.0009375-0.0009375 0.011562-0.004063 0.00531 0.001719 0.00187 0.000938 0.00203 0.000781 0.0007812 0.00125 0.00141 0.004219-0.0004688 0.004687-0.0007812 0.006406 0.025313 0.004688 0.039063 0.00031h0.0003125l0.0001562-0.000625-0.0001-0.00282-0.0063-0.01359-0.0051-0.01094-0.0158-0.02406-0.0161-0.00844-0.0272-0.00485v0.000155l-0.00234-0.000937-0.0009375-0.0007815-0.0004688-0.0007815zm0.63234 0.003281-0.00344 0.0007815-0.00328 0.002343-0.00422 0.005469-0.0007813 0.001875-0.00531 0.012344-0.0001563 0.003437 0.0003126 0.0007815 0.0007812 0.00031 0.00547-0.002656 0.02125-0.011719 0.0025-0.002031 0.000625-0.000781-0.00141-0.004532-0.00125-0.001718-0.00656-0.002969-0.00109-0.00047-0.00344-0.00047zm-1.2906 0.002812-0.015625 0.010156-0.002187 0.0025v0.001407 0.012968l0.003437 0.002657 0.002812 0.001406 0.003906 0.000937 0.010938 0.001095 0.004531-0.000155 0.00641-0.005313 0.00281-0.003437 0.0003125-0.00047 0.0075-0.011562 0.000156-0.0007815-0.00109-0.006406-0.00172-0.001875-0.00469-0.001094-0.011094-0.00031-0.006406-0.001719zm1.2523 0.017812-0.00109 0.00031-0.014063 0.005312-0.00188 0.002031-0.00266 0.003125-0.0004687-0.002031-0.0007813-0.000155h-0.00109l-0.0009375 0.000315-0.00109 0.000781-0.000625 0.000625v0.000781l0.00141 0.00125 0.00125 0.001094 0.00328-0.000155 0.01625-0.005781 0.00328-0.002812 0.00172-0.001875-0.0025-0.002812zm0.22953 0.13453-0.00156 0.000155-0.00328 0.0009375-0.00375 0.001875-0.00234 0.001875-0.0007813 0.001094-0.0007813 0.001875 0.0001563 0.006719 0.00172 0.005312 0.00109 0.00125 0.01 0.011094 0.00109 0.0007815 0.0025 0.025 0.018594 0.028906 0.0004687 0.000781 0.0009375 0.00047 0.0009375 0.000155 0.019061-0.009218 0.0001563-0.000155 0.00203-0.005469-0.0001563-0.000625-0.00625-0.009375-0.00188-0.008125v-0.00031l0.0003125-0.000625 0.0175 0.001562 0.00766 0.006719 0.013437 0.015 0.00125 0.001563 0.0009375 0.002031 0.00219 0.005468-0.0004687 0.025782-0.017969-0.003125-0.00375-0.007656-0.00297-0.01-0.0007813-0.000625-0.00234-0.001093-0.00375-0.00047-0.00937 0.0025-0.000625 0.00031-0.000625 0.00047-0.00188 0.00375-0.0009375 0.006875 0.0001563 0.00125 0.0009374 0.002031 0.00156 0.00125 0.00609 0.0075 0.00188 0.004219 0.00391 0.011563 0.0001562 0.002344-0.00219 0.005625-0.00156 0.004219-0.00125 0.000938-0.00531 0.003281-0.00625 0.003437-0.00641 0.003125-0.00203 0.00047-0.00203-0.000155-0.00125-0.000155-0.00391 0.007656 0.00375 0.003594 0.00594 0.002656 0.00703 0.001719 0.00516-0.00047 0.013125-0.002344 0.01375-0.00375 0.00156-0.000625 0.020781-0.010781 0.0375-0.003906 0.00156 0.000155 0.00109 0.000155 0.00672-0.030156-0.019531-0.015938-0.021406-0.019688-0.025625-0.024219-0.00547-0.003281-0.0075-0.00375-0.00172-0.000781-0.00172-0.00047-0.00516-0.000781-0.005-0.001875-0.00922-0.005157-0.00266-0.001562-0.00547-0.004688-0.00562-0.005625-0.00391-0.004375-0.00109-0.001875-0.00875-0.02-0.0025-0.002812-0.00125-0.000781-0.00266-0.000625zm-1.7775 0.010937-0.002188 0.0007815-0.002656 0.001875-0.0003125 0.001094 0.004375 0.008125 0.001563 0.000315 0.003594 0.00031 0.004375-0.007656-0.0004685-0.002969-0.005781 0.000625v-0.000155l-0.0025-0.002344zm0.24078 0.067032-0.00125 0.000155-0.00125 0.00047-0.001094 0.000625-0.001094 0.001093-0.00078125 0.001094-0.001094 0.002188-0.000625 0.0025v0.001875l0.0025 0.003125 0.001719 0.001719 0.0009375 0.000625 0.001406-0.000155 0.001563-0.0009375 0.000625-0.012812v-0.00031l-0.001563-0.00125zm0.84031 0.024064-0.00531 0.000781-0.00172 0.00047-0.0025 0.001094-0.011719 0.006093-0.00734 0.005781-0.00125 0.002969 0.0003125 0.005156 0.000625 0.003281 0.00125 0.002656 0.00109 0.001406 0.00188 0.001563 0.00172 0.00031 0.017813 0.003282 0.00719-0.0125 0.00359-0.010938 0.00109-0.006094-0.0003125-0.0025-0.0003125-0.0009375-0.00141-0.000781-0.00469-0.001094zm-1.0895 0.11328-0.006719 0.000315-0.001875 0.000781-0.002188 0.001875v0.0009375l0.0004685 0.000625 0.005156 0.00625 0.0009375-0.005157 0.00125-0.002187 0.000625-0.000315h0.000625l0.019219 0.004844 0.008125 0.002969 0.0009375-0.000155-0.0003125-0.002343-0.006094-0.004375-0.001094-0.00047-0.003125-0.0009375-0.008906-0.002031-0.003281-0.00047-0.00375-0.000155zm-0.051094 0.005157-0.005156 0.000155-0.003125 0.000937-0.00125 0.0007815-0.001406 0.001407-0.003125 0.00375-0.00125 0.002812-0.000156 0.002031 0.001094 0.002032 0.0009375 0.00047 0.0025 0.00047 0.004531-0.00625 0.018438 0.00125 0.018438-0.003437 0.000156-0.000315-0.000156-0.000625-0.002031-0.002187-0.006719-0.001719-0.002188-0.00031-0.011875-0.001093-0.007656-0.000155zm0.088906 0.002812-0.003594 0.004375v0.001875l0.002031 0.008438 0.0004685 0.001093 0.001094 0.00125 0.00125 0.0007815 0.001719 0.0007815h0.0004685l0.0003125-0.00047 0.000156-0.005313-0.002031-0.010625-0.001875-0.002187zm-0.13953 0.007188-0.017031 0.000155-0.002031 0.00031-0.003125 0.001563-0.001094 0.000937-0.003594 0.004844-0.0003125 0.001406-0.000156 0.003594 0.00078125 0.004531 0.001719 0.001406 0.00125 0.00031 0.010781-0.011094 0.001406-0.00047 0.011719-0.001093 0.007969-0.0007815h0.001094l0.010625 0.0007815h0.0003125v0.00031l-0.000625 0.000625 0.000156 0.000315 0.003906-0.000315h0.000156l0.000156-0.00047-0.000156-0.0025-0.000625-0.0009375-0.001719-0.001094-0.002031-0.000781-0.00125-0.00031-0.004844-0.000625-0.013438-0.000625zm-0.04958 0.01016l-0.00125 0.00031-0.007344 0.002969-0.0004685 0.00047v0.00047l0.001562 0.0025 0.007031 0.001563 0.007969 0.0009375 0.007031 0.00031v-0.00047l-0.000156-0.000781-0.001562-0.005625-0.00078125-0.00031-0.010312-0.002343h-0.001719zm-0.058906 0.004062-0.002656 0.000315-0.004688 0.00125-0.007031 0.003125-0.001875 0.000937-0.001562 0.001094-0.000625 0.00125 0.0003125 0.0009375 0.00125 0.001875 0.003281 0.002657 0.003594-0.00047 0.01-0.000781 0.038281-0.004844 0.002969-0.0009375 0.004531-0.001563 0.000156-0.000781-0.000938-0.0025-0.00125-0.000625-0.002656-0.000625-0.005312-0.000155-0.035781-0.000155zm-0.052188 0.017969-0.034531 0.003437-0.010625 0.0009375-0.001719 0.00047-0.0003125 0.000781 0.0003125 0.000781 0.0025 0.001719 0.001719 0.000625h0.000625l0.002969 0.000155 0.000156-0.00047 0.002812-0.0007815 0.023438-0.003594 0.017656-0.000625 0.00375-0.000155 0.003125 0.000155 0.007344 0.00047 0.0004685 0.000155 0.0003125 0.0007815 0.00078125-0.001094 0.000156-0.00125-0.0003125-0.000781-0.000625-0.0007815-0.004375-0.0009375h-0.015625zm-0.084844 0.029844-0.001406 0.000155-0.02625 0.007813-0.001406 0.000625-0.0004685 0.00047-0.00078125 0.00125-0.0004685 0.002032 0.0009375 0.004375 0.002188 0.003281 0.012969 0.010468 0.003281 0.00047 0.000625-0.000155v-0.00031l-0.000625-0.00047-0.000625-0.001406v-0.001563l0.0004685-0.000625 0.002031-0.000781 0.002656-0.000155 0.001563 0.0009375 0.002656 0.005469 0.000625-0.000155 0.002656-0.002031 0.0003125-0.00047-0.003281-0.004063-0.006406-0.005781 0.026406-0.007344-0.0003125-0.000781-0.0025-0.002813-0.008906-0.006562-0.003281-0.001406-0.002656-0.00047z"/>
 <path id="red_stripe" fill="#d00" d="m0.37344 1.3305 0.003281 0.000937 0.001719-0.000625 0.0004685-0.00031h-0.005469zm0.027344 0 0.013125 0.025156 0.0025 0.00937-0.0004685 0.010781-0.005312 0.00703-0.003437 0.00734-0.006875 0.015625-0.000156 0.0025 0.000625 0.00422 0.00078125 0.00391 0.002969 0.00812 0.007031 0.00781-0.012656 0.0075-0.038438 0.023906-0.009219 0.01-0.00078125 0.00406-0.002031 0.00812-0.001875 0.00188-0.003906 0.00375-0.002812 0.00031-0.028438 0.00922-0.007813 0.012344-0.007344 0.017343 0.012031 0.00641 0.0225 0.019219 0.0009375 0.00391 0.0004685 0.00672-0.000156 0.00109-0.00125 0.00312-0.013281 0.017188-0.006406 0.00656-0.006094 0.00438-0.006094 0.00406-0.003437 0.00109h-0.000156l-0.007188-0.00719-0.001563-0.00266-0.0025-0.00156-0.003125 0.000781-0.02875 0.00984-0.014531 0.00562-0.007344 0.00391-0.004687 0.0025-0.024219-0.00031-0.010625-0.00453-0.00078125-0.000155-0.001406 0.00469 0.0003125 0.00156 0.005312 0.017656-0.002187-0.00031-0.006406-0.00359-0.009688-0.00844-0.015-0.00969-0.003281-0.00219-0.003594-0.00172-0.00125-0.000155-0.024688-0.00109-0.009688 0.00641-0.024375 0.00328-0.010938-0.00047-0.022188 0.00984-0.0075 0.012343 0.0073438 0.035157 0.009375 0.03125 0.0003125 0.00047 0.0017187 0.00234 0.016094 0.00734 0.00078125 0.0225-0.00125 0.00547 0.016406 0.01875 0.003437 0.0025 0.012812 0.02125 0.003281 0.00688 0.0025 0.019844v0.00313l-0.001719 0.011406-0.0025 0.00781-0.003281 0.015938 0.005 0.017813-0.011719 0.012812-0.036094 0.045469-0.0059375 0.017187 0.0004685 0.016094 0.0026562 0.00531 0.0025 0.0007812h0.0009375 0.0021875l0.0017188-0.000625 0.001875-0.0007812 0.0009375-0.0009375 0.000625-0.0009375 0.0025-0.00172 0.0084375-0.00375 0.0053125-0.00219 0.004844 0.00422-0.002031 0.0009375-0.011875 0.005-0.005 0.014375-0.039375 0.026406-0.03125 0.010156-0.015108 0.0068-0.000312 0.0003 0.000156 0.00266 0.0029688 0.015 0.0071875 0.015625 0.004375 0.00516 0.012656-0.00297 0.019688 0.00156 0.0026563 0.0003125 0.000156 0.000625-0.0014062 0.00438-0.0029687 0.00609-0.0003125 0.00703 0.000625 0.00687 0.012031 0.00438 0.0067187 0.00281 0.0039063 0.00172-0.0003125 0.00172-0.000625 0.00141-0.0017188 0.00172-0.0004685 0.00109-0.0021875 0.00734 0.0003125 0.0025 0.00125 0.00266 0.0015625 0.00188 0.0004685 0.00359-0.0053125 0.012969-0.0051563-0.00266-0.0004685-0.00125-0.0020312-0.0003125-0.0051563 0.00156-0.005 0.00203-0.0010937 0.00375-0.008125 0.025781 0.013438 0.022344 0.022188 0.0125 0.0009375 0.000625 0.0017188 0.00156 0.0067187 0.017031 0.000625 0.00219 0.00125 0.00266 0.0048438 0.00813 0.0023437 0.00328 0.0040625 0.00375-0.005625 0.00219-0.00078125 0.0003125 0.004375 0.00578 0.017344 0.00453-0.004062 0.017969-0.016406 0.015625-0.0004685 0.00125 0.0003125 0.0075 0.0025 0.00797 0.0015625 0.00266 0.0098437 0.013906 0.0004685 0.000156h0.0004685l0.004844-0.00203 0.002656-0.00187 0.000625-0.000156 0.005937-0.000156 0.012812 0.00219 0.00125 0.00109 0.0009375 0.00141 0.005625 0.00359 0.002344 0.00375 0.008594 0.014375 0.0009375 0.00234 0.0003125 0.00562-0.0003125 0.00344-0.002812 0.0125-0.001562 0.00406-0.002969 0.005 0.000625 0.010156 0.012188 0.014375 0.001875-0.000625 0.002344 0.00422 0.00078125 0.0025 0.003438 0.00531-0.007188-0.0004685-0.014062 0.00359-0.011094-0.00563-0.004688 0.00125-0.002187 0.0007812-0.005937 0.012656-0.001875 0.00453-0.037344 0.024062-0.00078125 0.00109v0.0004685l-0.0009375 0.00672 0.0015625 0.021094-0.012188 0.010313-0.010156 0.035781-0.0015625 0.015156 0.0076563 0.030312 0.0057813 0.014687 0.0017187 0.00375 0.0021875 0.00484 0.016719 0.027813 0.0089063 0.010312 0.028125 0.017187 0.015469 0.015469 0.001094 0.00109 0.005469 0.00313h0.014844l0.004063-0.00266 0.003906 0.00266h1.99l0.010469-0.019531 0.00297-0.00344 0.00141-0.00125 0.0003123-0.0175-0.014062-0.024219-0.00313-0.00453-0.00703-0.00391-0.005-0.0007812-0.00844-0.0001402-0.020469-0.012188-0.016563-0.016719-0.019219-0.00312 0.00156-0.010312-0.00781-0.00797-0.005-0.00391-0.00266-0.000625-0.00344 0.00109-0.0004688-0.0003125-0.00266-0.00313-0.0004687-0.0009375-0.00125-0.00625-0.0009375-0.00781 0.0001562-0.0025 0.00156-0.00484 0.00344-0.00344 0.0009375-0.00281 0.0003126-0.00188-0.005-0.010469-0.00703-0.00859-0.00563-0.00594-0.00125-0.00109-0.016406-0.00875-0.00234-0.013125 0.00219-0.00219 0.00469-0.00109 0.00359-0.00281 0.0003126-0.0004685 0.0003124-0.0009375-0.00594-0.013281-0.0075-0.00719 0.00188-0.00156 0.0136-0.0004697 0.00984-0.000156 0.00234 0.000156 0.00578 0.00656 0.029063 0.041719 0.00109 0.00813-0.0009375 0.00406-0.0009375 0.000625-0.00266 0.00109-0.0003126 0.00125 0.00141 0.00281 0.00406 0.00641 0.000625 0.0007813 0.0009375 0.0004685 0.00484 0.00109 0.00391 0.0004685h0.00391l0.00125-0.0009375 0.0009375-0.00953-0.00172-0.00359-0.00109-0.0009375-0.00109-0.000625-0.0007813-0.000625-0.0007812-0.00234 0.00141-0.01375 0.00109-0.00375 0.00953-0.019062 0.010625-0.015469 0.037031-0.04625 0.022188-0.00625 0.025313-0.00328 0.00547-0.0007813 0.018594-0.010313 0.02625-0.015937 0.0003125-0.000156 0.00328 0.00172 0.020938 0.013438 0.014531 0.00953 0.00375 0.00125 0.010625-0.00641 0.00188-0.00141 0.010156-0.0125 0.00109-0.00187 0.0004688-0.00188v-0.000156l0.0001562-0.0025-0.0007813-0.00188-0.000625-0.00359 0.000625-0.010312 0.00219-0.010625 0.0001562-0.0009375 0.0007813-0.0003125 0.00297-0.00109 0.027656-0.0025 0.015312 0.00484 0.0075-0.00156 0.00937-0.022656-0.0004687-0.00344 0.016719-0.018594 0.029375-0.0225 0.010781 0.00109 0.019375 0.00953 0.00953-0.012344 0.00453-0.00281 0.00922-0.020781 0.0001563-0.000625-0.00109-0.00469-0.00109-0.0025 0.03625-0.021719 0.005-0.000625 0.034687-0.00453h0.0007812l0.00953 0.00203 0.00156 0.000625 0.00266 0.00203 0.00219 0.000625h0.0006249l0.00594-0.0007813 0.00297-0.00109 0.0125-0.00828 0.00156-0.00391 0.0003125-0.00219-0.00109-0.015781-0.00125-0.00234 0.00922-0.0007813 0.00406-0.0003125 0.042031-0.013437 0.00297-0.00109 0.00547-0.00672 0.00984-0.00531 0.055781-0.028437 0.026406-0.00953 0.00359-0.0125-0.0007813-0.00469-0.00141-0.00203-0.00141-0.00109-0.00187-0.0007813-0.00344 0.0009375-0.0175-0.00469-0.00219-0.0009375-0.00125-0.0009375-0.018125-0.015937-0.0004685-0.0009375 0.00937-0.029219 0.00125-0.00313 0.00188-0.00219 0.00359-0.0003125 0.000625 0.000156 0.00109 0.0009375 0.00484 0.00562 0.0009375 0.0009375 0.0009376 0.0004685 0.022969 0.00859h0.0007813l0.0025-0.0003125 0.02375-0.00344 0.0004686-0.00719-0.0007813-0.00328 0.0025-0.00172 0.026562 0.022344 0.00672 0.00641 0.010625 0.030781 0.00406 0.01875-0.00406 0.012188 0.0004686 0.00391 0.010156 0.00406 0.027344 0.010312 0.010625 0.00188 0.00234-0.000156 0.00719-0.000625 0.00172-0.00109 0.0007812-0.00344 0.00219-0.012188 0.00172-0.012031 0.00687-0.01375 0.00703-0.00859 0.00766-0.00984 0.00141-0.0025 0.00609-0.018281 0.00359-0.016094 0.00109-0.00547-0.0001561-0.0003125-0.00125-0.00125 0.00344-0.0125 0.00438-0.00609 0.00109-0.00813 0.00969-0.071719 0.00125-0.00594 0.00578-0.013594 0.000156-0.014375-0.00328-0.010156-0.024375-0.052187 0.000156-0.020156v-0.00203l-0.00641-0.010781-0.00219-0.00344-0.0004686-0.0004685-0.00828-0.00438-0.00109-0.000625-0.040938-0.015156-0.00125-0.000156-0.00469 0.0003125-0.00438-0.0003125-0.00438-0.00125-0.00531-0.00188-0.00219-0.00266-0.00641-0.015 0.000156-0.000781 0.005-0.00969 0.00469-0.00672 0.00406-0.013437-0.0025-0.021094-0.00344-0.00703-0.00281-0.00328-0.00344-0.00281-0.00172-0.00109-0.01125-0.00859-0.00766-0.00859-0.0025-0.00547-0.014219-0.031406-0.00516-0.00156-0.0007813-0.000625-0.00109-0.00141-0.00406-0.00641-0.0003125-0.0025-0.000156-0.00594v-0.00031l0.00188-0.00203 0.00844-0.00875 0.00578-0.00484 0.014688-0.020156 0.00484-0.017031 0.0009375-0.03-0.00141-0.00297-0.000625-0.000315 0.00703-0.012031 0.00188-0.00375 0.000156-0.000625 0.00219-0.016406-0.000156-0.00156-0.00469-0.00766-0.00203-0.00203-0.00297-0.00219-0.00219-0.00109-0.00312-0.0009375-0.00359-0.00031-0.00109-0.0007815-0.0025-0.0025-0.00156-0.00234-0.00203-0.00406-0.00156-0.012969 0.000156-0.00172 0.000625-0.00125 0.00406-0.00516 0.00234-0.00469 0.0003125-0.00219 0.00109-0.032031-0.000156-0.00109-0.0004685-0.000937-0.005-0.00703-0.00109-0.00141-0.00141-0.00109-0.0004686-0.000155-0.023594-0.00594-0.00156-0.000315-0.00375 0.000155-0.00203-0.0009375-0.0009375-0.0009375-0.00484-0.00531-0.0009375-0.00109-0.0003125-0.00125-0.0075-0.028125-0.00172-0.013281-0.00125-0.00281-0.00359-0.00547h-2.3578z"/>
 <path id="gold_stripe" fill="#ffce00" d="m0.14687 2.6655 0.003906 0.00219 0.000625 0.000156h0.007344l0.003594-0.00234h-0.015469zm0.022969 0 0.00625 0.00422 0.002812 0.020937 0.000156 0.00328-0.0075 0.025625-0.029062 0.047188-0.006094 0.00641-0.00125 0.00125-0.001406 0.000625h-0.0025l-0.001094 0.000625-0.002187 0.00234-0.006719 0.00969-0.0004685 0.0009375v0.0004685l0.007031 0.010938 0.000156 0.000156-0.006719 0.00719-0.00125 0.00219-0.0003125 0.0009375 0.002031 0.03125 0.0025 0.00297 0.00625 0.0003125 0.003281-0.0007812 0.001719-0.0007813 0.008438-0.00172 0.011562 0.00422 0.021562 0.016563 0.002344 0.00187 0.002656 0.00281 0.002031 0.00313-0.002969 0.0007813-0.003437 0.00281-0.000625 0.00125 0.0003125 0.00219 0.007813 0.029844 0.0003125 0.0009375 0.006875 0.0125 0.001719 0.0025 0.004688 0.00578 0.001406 0.00156 0.008125 0.00453 0.009688 0.00828 0.006406 0.016094 0.0003125 0.0009375-0.0004685 0.00906 0.010781 0.00625 0.002344 0.00672-0.007187 0.00875 0.002812 0.00672 0.005781 0.00641 0.027656 0.005 0.008437-0.00156 0.004688-0.00734 0.0009375-0.00219 0.000156-0.00156-0.002812-0.00937-0.002812-0.00406-0.002344-0.00188 0.00078125-0.00109 0.007187-0.00453 0.02 0.00219 0.007031 0.00203 0.011719 0.00422 0.010938 0.00844 0.00625 0.00953-0.0004685 0.00266 0.00125 0.00719 0.003281 0.01875 0.001094 0.0025 0.001406 0.00141 0.001719 0.000625 0.003281-0.00109 0.008125-0.00813 0.004219-0.012812 0.004844 0.00828 0.006406 0.00625 0.002344 0.00141 0.004219 0.00234 0.001094 0.000625 0.002969-0.00344 0.003438-0.00125 0.002187-0.000625 0.020625 0.00203 0.007188 0.00297 0.005 0.00375 0.003594 0.00109 0.001719-0.00109 0.021875-0.0175 0.001406-0.00531-0.0003125-0.00141 0.000156-0.0025 0.005469-0.00156 0.01-0.00172 0.011875-0.00203 0.015938 0.00813 0.0009375 0.00703-0.0009375 0.00609v0.00406l0.010469 0.020156 0.006875 0.00609 0.004687 0.00297 0.022344 0.01375 0.014375 0.00547 0.019375 0.00109 0.009687-0.0004685 0.001563-0.0003125 0.017031-0.00391 0.024531 0.00359 0.005 0.00234 0.006719 0.000625 0.01625 0.00469 0.024844 0.012031 0.003594 0.00359 0.003437 0.00406 0.0004685 0.00141 0.008125 0.00375 0.015156 0.00609 0.004219 0.0007813 0.005-0.000156 0.001563-0.0007813 0.017344 0.00219 0.00078125 0.0004685 0.00078125 0.00141 0.001719 0.00266-0.008437 0.00281-0.001563 0.0004685-0.001563 0.0007813-0.001563 0.00156-0.016875 0.026562-0.004375 0.00813-0.002031 0.00453-0.001875 0.00422-0.002969 0.00828-0.002031 0.00656-0.001406 0.00609-0.0009375 0.00391-0.00125 0.00266-0.002031 0.00328-0.003594 0.00438-0.003906 0.00344-0.017344 0.012344-0.0125 0.00313-0.002031 0.000156-0.002344 0.00109-0.00078125 0.000625-0.00078125 0.00172-0.003594 0.018125-0.023906 0.0275-0.0025 0.00188-0.007344 0.00422-0.006094 0.0025-0.001094 0.00109-0.00078125 0.00109-0.013438 0.02625-0.00078125 0.00219-0.000156 0.00156v0.00234l0.001094 0.00547 0.0003125 0.00453-0.000156 0.017969v0.00203l-0.000625 0.00266-0.001563 0.00344-0.001406 0.00203-0.011562 0.023594-0.010625 0.025937-0.001094 0.00328-0.000625 0.00328-0.0004685 0.00359v0.00297l0.0004685 0.00438 0.003594 0.019531v0.00156l-0.0004685 0.00156-0.00078125 0.00188-0.00078125 0.0009375-0.0009375 0.00109-0.0025 0.00141-0.008437 0.00312-0.002344 0.00172-0.001875 0.00234-0.00125 0.0025-0.0003125 0.00172-0.003594 0.018437-0.003281 0.011563-0.001719 0.00531-0.0009375 0.00219-0.011719 0.015938-0.010938 0.014375-0.0009375 0.00156-0.007813 0.017031-0.0004685 0.00125-0.000156 0.00234-0.002969 0.015781-0.0003125 0.00219-0.00078125 0.021563-0.000156 0.00187 0.0004685 0.00141 0.00078125 0.00125 0.010625 0.013281 0.002344 0.00391 0.001406 0.00328 0.001563 0.00609v0.00328l-0.000625 0.0025-0.002656 0.00469-0.002344 0.00328-0.009062 0.012812-0.009063 0.02375-0.00078125 0.00266v0.00344l0.0004685 0.00203 0.001719 0.00469 0.0003125 0.00281-0.0003125 0.00266-0.001094 0.00344-0.00625 0.014219-0.004531 0.011094-0.0004685 0.00172-0.0003125 0.00422 0.0003125 0.00203 0.004688 0.014531 0.00078125 0.00266v0.00172l-0.000625 0.00359-0.00125 0.00297-0.001406 0.00203-0.001094 0.00125-0.007969 0.00625-0.000625 0.00109-0.0004685 0.00188 0.002187 0.014219 0.0003125 0.00172 0.00078025 0.00219 0.0009375 0.00156 0.021719 0.028437 0.029062 0.00766 0.001719 0.00484 0.0009375 0.00453-0.000156 0.00172-0.0125 0.005-0.002344-0.000625-0.00125 0.000625 0.003438 0.00563 0.006094 0.00641 0.00078125 0.0007812 0.003906 0.00156 0.004062 0.0003125 0.001406-0.000156 0.019219-0.00547 0.013438-0.00484 0.0025-0.00141 0.005156-0.00547 0.0009375-0.00203 0.007188-0.00703 0.017812-0.000625 0.001094 0.000156 0.001875 0.0007813 0.00078125 0.0007812 0.005313 0.00781 0.016719 0.00687 0.020781 0.00453h0.0009375l0.023125-0.00297 0.00125-0.0004685 0.002188-0.00172 0.0009375-0.00219 0.0004685-0.00422 0.0004685-0.00125 0.000625-0.00109 0.001719-0.00172 0.031094-0.018125 0.001094-0.0004685 0.00125-0.0003125 0.0025 0.0003125 0.016094 0.00312 0.009375 0.00234 0.002812 0.00156 0.001094 0.00109 0.000156 0.000625-0.0009375 0.00453v0.00172l0.00078125 0.00172 0.00078125 0.00109 0.008125 0.00766 0.00125 0.000625 0.00078125 0.0003125 0.001875 0.0003125 0.033281 0.00281 0.0025-0.0004684 0.009219-0.00234 0.007656-0.0025 0.002812-0.00188-0.000156-0.000625-0.001875-0.00281-0.006719-0.00844 0.01875-0.014687 0.005625 0.00125 0.0003125 0.000156 0.006406 0.00328 0.003594 0.00406 0.000625 0.0009375 0.0003125 0.00141-0.0004685 0.0007813-0.00125 0.0004685-0.0009375 0.00359 0.00125 0.00266 0.005156 0.0009375 0.002812-0.0025 0.004375-0.00469 0.0075-0.015469 0.001875-0.00469v-0.00141l-0.0075-0.010156-0.001719-0.0003125-0.00125-0.000156-0.012812 0.00109-0.002969 0.000625-0.006719 0.00281-0.002188 0.00141 0.00078125 0.00297-0.019531 0.00797-0.001094-0.0004685-0.019844-0.014219-0.002188-0.00375v-0.000625l0.002344-0.010156 0.01625-0.027969 0.005781-0.0075 0.005469-0.00438 0.007344-0.00141 0.01625-0.00344 0.002031-0.00609 0.00375-0.00531 0.014062 0.00281 0.001719 0.017187 0.002812 0.00422 0.00125 0.000625 0.004687-0.00313 0.001094-0.00125 0.001875-0.00328-0.00125-0.00563 0.011562 0.00375 0.008125 0.00703 0.005625 0.00937-0.003125 0.00359-0.00125 0.00438 0.005 0.017812 0.0004685 0.00156 0.019219 0.00828 0.002812 0.00109 0.001406-0.000156 0.005-0.00906 0.022969 0.02 0.00625 0.00375h0.001094l0.014531-0.00422 0.00625-0.00297 0.00375-0.00234 0.0025-0.00234 0.002188-0.00141 0.005938-0.00312 0.005781-0.00234 0.001875-0.0004685 0.001406 0.000156 0.008906 0.0009375 0.00219 0.0003125 0.012344 0.00281 0.0025 0.0007813 0.00187 0.00109 0.011563 0.00625 0.012656 0.00516 0.00672-0.00109 0.00797-0.00484-0.00203-0.00797-0.012812-0.027344-0.00828-0.00687-0.00156-0.000156-0.00266 0.0004685-0.000625-0.000156-0.016406-0.01125-0.00281-0.00188-0.00375-0.00312-0.012344-0.012813-0.0007812-0.00125v-0.000625l0.00125-0.0025 0.00187-0.00312 0.00766 0.00125 0.00141 0.00125 0.00188 0.00297 0.00125 0.0006249 0.010469 0.00672 0.038281 0.025156 0.00313 0.00281 0.0003125 0.0004686 0.000156 0.00188-0.000625 0.0009375 0.0007812 0.00422 0.0009375 0.0025 0.00266 0.00453 0.00391 0.00391 0.00516 0.00469 0.013437 0.00906 0.010156 0.00547 0.00453 0.00234 0.00125 0.000625 0.00187 0.000156 0.0025-0.0007812 0.00266-0.00156 0.00125-0.000156 0.00656-0.00109 0.00203-0.000156h0.00297l0.00484 0.00141 0.024687 0.00781 0.00281 0.00234 0.00328 0.00453 0.00203 0.00391 0.000625 0.00438 0.00406 0.00937 0.00719 0.00781 0.00156 0.0009375 0.00172 0.0007813 0.00422 0.0004684h0.010313l0.0007812 0.00453 0.00437 0.00281 0.015938 0.00656 0.019062 0.00594 0.0125-0.017187 0.00313-0.00453 0.00406-0.00312 0.00813-0.0004686 0.0007813 0.000156 0.00734 0.00453 0.00125 0.00422-0.0004685 0.00953-0.0007812 0.00156-0.0009375 0.00109-0.0007813 0.0003126-0.000625 0.0004685-0.0007812 0.00188 0.0003125 0.00109 0.020312 0.00969 0.016719-0.0004685 0.00375-0.00156 0.011094-0.00594 0.00109-0.00109-0.0009375 0.00406-0.000156 0.00344v0.00531l0.010625 0.017969 0.00188 0.00203 0.0007813 0.0003125h0.00266l0.00438-0.00125 0.010312 0.00422 0.00953 0.010781 0.00437 0.00578 0.00453 0.00781-0.00359 0.00563-0.0004685 0.0004685-0.00313 0.00125-0.00266 0.00547 0.00781 0.025156 0.022969-0.00734 0.00125-0.00125-0.000156-0.00203 0.000156-0.00547 0.00438-0.00328 0.015781 0.00172 0.0007813 0.0003126 0.00234 0.00328 0.0003125 0.00422-0.000156 0.0006251-0.00375 0.00516-0.00313 0.00406-0.013125 0.030312-0.00125 0.00391-0.00109 0.00453 0.000156 0.00266 0.000625 0.00187h0.00141l0.022344-0.00391 0.01375-0.00516 0.014844-0.00922 0.0075-0.00719 0.024219-0.030937 0.02-0.026875-0.00172-0.019531-0.0003125-0.00375-0.0025-0.00281-0.00328-0.00156-0.00203 0.0007812-0.0009375-0.0003125-0.0009375-0.0009375-0.00328-0.00875-0.000625-0.037812 0.00203-0.00328 0.000625-0.000156 0.010938-0.00172h0.00141l0.000156 0.00391-0.00109 0.00516-0.00313 0.00375-0.00219 0.00328 0.00234 0.00172 0.00984 0.00625 0.012188 0.0025 0.015469 0.000625 0.00156-0.000156 0.00297-0.00734v-0.0007812l0.00234-0.00469 0.00406-0.00469 0.00609 0.0004685 0.025313 0.00422 0.0004685 0.00125-0.0003125 0.0009375 0.000156 0.00172 0.00109 0.00312 0.024375 0.00984 0.011719 0.00234 0.019531-0.00766 0.010938-0.00125 0.00672 0.00984-0.00969 0.0075-0.00234 0.00219-0.000156 0.00687 0.000625 0.00203 0.0025 0.00109 0.00109 0.000156 0.01625 0.00344 0.011562 0.012031 0.00797 0.00922 0.0004687 0.00469-0.00141 0.00125-0.00297 0.000625-0.0003125 0.0004685-0.0007812 0.00234 0.000625 0.00609 0.00313 0.00156 0.00594 0.00109 0.00344 0.000156 0.026406-0.00125 0.017344-0.00859 0.00641-0.00375 0.00187-0.0009375 0.017031-0.00672 0.015156 0.0003125 0.0007813 0.000625 0.0009375 0.00188-0.00453 0.00422-0.00547 0.00953-0.0004688 0.00219 0.0007813 0.0009375 0.00125 0.000156 0.014531-0.00156 0.0009375-0.0003125 0.00391-0.00234 0.00203-0.0025 0.00156-0.005 0.0009375-0.00188 0.00281-0.005 0.027344-0.024219 0.00844-0.00984 0.0009375-0.00188 0.00687-0.00781 0.00109-0.0009375 0.00125-0.0004685 0.00234 0.00297 0.00328 0.0009375 0.017344 0.00156 0.021875-0.005 0.00125-0.0004685 0.00531-0.00578-0.0003125-0.00703-0.0004688-0.00125-0.0001562-0.0009375v-0.00109l0.000625-0.00562 0.00578-0.012344 0.0004688-0.0007813 0.00891-0.00578 0.00578 0.00109 0.04875 0.000156 0.013906 0.0025 0.00516 0.0004685 0.00109-0.000625 0.00578-0.010312 0.01625-0.00625 0.019375-0.0025 0.017969 0.00219 0.014219-0.00391 0.00766 0.00438 0.01625 0.00172 0.018594 0.0004685 0.00687-0.00156 0.0007812-0.000625 0.000625-0.0009375 0.0003126-0.00141v-0.0009375l-0.0025-0.00984-0.00156-0.005-0.00578-0.012656 0.0007812-0.017344 0.021563-0.021094 0.0025-0.0007813 0.00219 0.00297 0.0007813 0.00234-0.00234 0.00547-0.00172 0.00312 0.00578 0.017813 0.023906-0.00906-0.0007812 0.00234 0.00109 0.0007813 0.00891 0.00344 0.02625 0.00281 0.0006249 0.00125 0.00906 0.012188 0.012031 0.012344 0.00469-0.0003125 0.024063-0.012344 0.00453-0.00969 0.00266-0.00375 0.00156-0.0003125 0.019531-0.00438 0.00422-0.0009375h0.00203 0.00406l0.019375 0.00531 0.00734 0.00219 0.013438 0.027813-0.00484 0.00516-0.00375 0.00953-0.0004688 0.00188 0.00172 0.005 0.00375 0.00609 0.00344 0.00328 0.038438 0.026094 0.014687 0.00828 0.00406 0.00187 0.013125 0.00531 0.0009375 0.0003125 0.0009375-0.000625 0.01375-0.014844v-0.00359l-0.0007812-0.011406-0.0003125-0.00125-0.00156-0.00125-0.00156-0.000625-0.00156-0.00125-0.0007812-0.0009375v-0.0007812l0.00281-0.022187 0.0004687-0.00344 0.00922-0.014375 0.00641-0.00766 0.00156-0.00156 0.0007812-0.00375-0.0004687-0.00234-0.010781-0.02625-0.00734-0.00937-0.00141-0.0009375-0.00984-0.00484-0.0025 0.000156-0.0007813 0.0003125-0.00109 0.00219 0.0003125 0.000625-0.0003125 0.0007813-0.0007812 0.00109-0.00359 0.0025-0.00141 0.0007813-0.00484 0.0003125-0.016719-0.00125-0.00438-0.00328-0.00266-0.00297-0.0004687-0.00109 0.0001562-0.0009375 0.018594-0.037344 0.012969-0.022812 0.0003125-0.00172-0.0003125-0.00219-0.0009375-0.00234-0.014063-0.025313-0.01125-0.017656-0.00453-0.00656-0.00109-0.0009375-0.0025-0.00109-0.012031-0.00219-0.00125-0.00125-0.00109-0.00234-0.00469-0.018125-0.0003125-0.00125-0.00141-0.00266-0.00203-0.0025-0.00406-0.00422-0.010156-0.00828-0.014219-0.011875-0.00328-0.00406-0.00156-0.00359-0.00109-0.00391-0.00125-0.00922v-0.00141l0.000625-0.0007813 0.0025-0.00328 0.012969-0.010625 0.010937-0.00844 0.0007813-0.00109 0.00453-0.00547 0.00469-0.010312 0.0004687-0.00141 0.0001563-0.00344 0.0003125-0.0009375 0.00109-0.00156 0.00141-0.00109 0.0009375-0.0003125 0.014375-0.00234 0.00922-0.0004685 0.00172-0.0003125 0.00203-0.0009375 0.00188-0.00125 0.00172-0.00156 0.011563-0.013438 0.00109-0.00203 0.00172-0.00359 0.0007813-0.00156 0.00172-0.00172 0.00156-0.00109 0.019687-0.010625 0.00281-0.000625 0.00312 0.000156 0.00609 0.000156 0.00375-0.0007812 0.0025-0.00109 0.014063-0.00781 0.024844-0.0003125 0.00234-0.0004685 0.00172-0.00109 0.019688-0.012969 0.00281-0.00219 0.025312-0.026094 0.00125-0.00141 0.0007812-0.00125 0.0009375-0.0025 0.00641-0.024844 0.0004687-0.00188-0.0001563-0.00156-0.0006249-0.00234-0.00391-0.00625-0.0001562-0.0007812v-0.00188l0.00141-0.005 0.00125-0.00266 0.00625-0.019375 0.0003125-0.00109-0.00344-0.013437-0.0003125-0.0004685-0.00391-0.00469 0.01-0.00313 0.00234-0.00109 0.00547-0.00453 0.00391-0.00438 0.0007813-0.00156 0.00188-0.00813 0.026719 0.010156 0.025156 0.015781 0.00141 0.00109 0.014531 0.00766 0.00719 0.00172 0.0009378-0.000781 0.022969-0.032344 0.00672-0.022656-0.0001563-0.00813-0.00594-0.028594-0.00656-0.011406 0.00453-0.00812 0.00344-0.010625 0.00281-0.011094-0.00641-0.013281-0.028906-0.042656-0.00297-0.000156-0.00203 0.00203-0.00156 0.0007813-0.00937 0.0004685h-0.00422l-0.00188-0.000625-0.00562-0.00656-0.00344-0.00734-0.00375-0.00875-0.00516-0.00672-0.012656-0.013906-0.0009374-0.0007812-0.00141-0.0009375-0.017187-0.000625-0.0075 0.00281-0.0001562 0.00453 0.0004687 0.00266 0.000625 0.00203 0.0001562 0.00453-0.00312 0.000625-0.00109-0.0001563-0.021875-0.014687-0.00547-0.00359-0.005-0.021406-0.00328-0.011406-0.00281-0.00438-0.016094-0.017656-0.00687-0.00547-0.012344-0.00875-0.00234-0.00109-0.00203 0.000156-0.00672 0.00172-0.00359 0.00141-0.00313 0.0009375-0.00875-0.00359-0.00422-0.0025-0.00531-0.00375-0.00453-0.00453-0.0003125-0.015h-0.00188l-0.00125-0.000625-0.00453-0.00375-0.00828-0.0075-0.00453-0.00594-0.029219-0.038906-0.010156-0.013281-0.010156-0.00953-0.00781-0.00438-0.00156-0.0003125-0.014688-0.0025-0.00437-0.0004685-0.00281 0.0003125 0.0004687 0.00359 0.00188 0.00234 0.0009375 0.00281-0.0006249 0.0004685h-0.00344l-0.025-0.00359-0.00563-0.00188-0.0025-0.00125-0.0075-0.01375 0.0009375-0.00375-0.00156-0.00625-0.034219-0.027188-0.00859-0.012812 0.00312-0.00406 0.0001563-0.000625v-0.00281l-0.0004688-0.010625-0.0007812-0.00687-0.0004687-0.00109-0.00141-0.00234-0.00156-0.000156-0.0004687 0.0004685-0.000625 0.00219-0.00281-0.0003125-0.00609-0.00219-0.00469-0.00297 0.00156-0.00188-0.00203-0.00172-0.00469-0.00687-0.01375-0.029688-0.00391-0.026719-0.00203-0.00813-0.0009375-0.0004685-0.022188-0.00641-0.0025-0.000625-0.0009375-0.000625-0.0009374-0.0009375-0.00953-0.013281-0.00234-0.00375-0.00172-0.00687-0.0003125-0.00125 0.0003125-0.00141 0.02125-0.014687 0.0007813-0.00344 0.00156-0.016719 0.00281-0.00875 0.0007812-0.00156h-1.9902zm0.71531 1.1019-0.012656 0.0007812 0.001094 0.010938 0.003125 0.00266l0.01033-0.0012 0.00359-0.0004-0.00062-0.0024-0.00359-0.0093-0.00125-0.0011z"/>
</svg>
