<svg xmlns="http://www.w3.org/2000/svg" viewBox="0 0 500 500">
	<g transform="translate(250, 2)">
		<g transform="rotate(45) scale(0.7, 0.7)" style="">
			<polygon style="fill: rgb(255, 255, 255); stroke: rgb(0, 0, 0); stroke-width: 3px;" points="250 50 213 213 250 250">
			</polygon>
			<polygon style="fill: rgb(0, 0, 0); stroke: rgb(0, 0, 0); stroke-width: 3px;" points="250 50 287 213 250 250">
			</polygon>
			<polygon style="fill: rgb(0, 0, 0); stroke: rgb(0, 0, 0); stroke-width: 3px;" points="250 450 213 287 250 250">
			</polygon>
			<polygon style="fill: rgb(255, 255, 255); stroke: rgb(0, 0, 0); stroke-width: 3px;" points="250 450 287 287 250 250">
			</polygon>
			<polygon style="fill: rgb(0, 0, 0); stroke: rgb(0, 0, 0); stroke-width: 3px;" points="50 250 213 213 250 250">
			</polygon>
			<polygon style="fill: rgb(255, 255, 255); stroke: rgb(0, 0, 0); stroke-width: 3px;" points="50 250 213 287 250 250">
			</polygon>
			<polygon style="fill: rgb(0, 0, 0); stroke: rgb(0, 0, 0); stroke-width: 3px;" points="450 250 287 287 250 250">
			</polygon>
			<polygon style="fill: rgb(255, 255, 255); stroke: rgb(0, 0, 0); stroke-width: 3px;" points="450 250 287 213 250 250">
			</polygon>
		</g>
	</g>
	<g>
		<polygon style="fill: rgb(255, 255, 255); stroke: rgb(0, 0, 0); stroke-width: 3px;" points="250 50 213 213 250 250">
		</polygon>
		<polygon style="fill: rgb(0, 0, 0); stroke: rgb(0, 0, 0); stroke-width: 3px;" points="250 50 287 213 250 250">
		</polygon>
		<polygon style="fill: rgb(0, 0, 0); stroke: rgb(0, 0, 0); stroke-width: 3px;" points="250 450 213 287 250 250">
		</polygon>
		<polygon style="fill: rgb(255, 255, 255); stroke: rgb(0, 0, 0); stroke-width: 3px;" points="250 450 287 287 250 250">
		</polygon>
		<polygon style="fill: rgb(0, 0, 0); stroke: rgb(0, 0, 0); stroke-width: 3px;" points="50 250 213 213 250 250">
		</polygon>
		<polygon style="fill: rgb(255, 255, 255); stroke: rgb(0, 0, 0); stroke-width: 3px;" points="50 250 213 287 250 250">
		</polygon>
		<polygon style="fill: rgb(0, 0, 0); stroke: rgb(0, 0, 0); stroke-width: 3px;" points="450 250 287 287 250 250">
		</polygon>
		<polygon style="fill: rgb(255, 255, 255); stroke: rgb(0, 0, 0); stroke-width: 3px;" points="450 250 287 213 250 250">
		</polygon>
	</g>
	<text style="fill: rgb(0, 0, 0); font-size: 52px; font-family: Oldenburg;" x="235.539" y="37.44">
		S
	</text>
	<text style="fill: rgb(0, 0, 0); font-size: 52px; font-family: Oldenburg;" x="239.88" y="496.877">
		J
	</text>
	<text style="fill: rgb(0, 0, 0); font-size: 52px; font-family: Oldenburg;" x="0" y="267.659">
		Z
	</text>
	<text style="fill: rgb(0, 0, 0); font-family: Arial, sans-serif; font-size: 52px;" x="465.313" y="267.937">
		V
	</text>
</svg>
