<svg xmlns="http://www.w3.org/2000/svg" viewBox="0 0 500 500">
	<g transform="translate(250, 2)">
		<g transform="rotate(45) scale(0.7, 0.7)" style="">
			<polygon style="fill: rgb(255, 255, 255); stroke: rgb(0, 0, 0);" points="250 50 213 213 250 250">
			</polygon>
			<polygon style="fill: rgb(0, 0, 0); stroke: rgb(0, 0, 0);" points="250 50 287 213 250 250">
			</polygon>
			<polygon style="fill: rgb(0, 0, 0); stroke: rgb(0, 0, 0);" points="250 450 213 287 250 250">
			</polygon>
			<polygon style="fill: rgb(255, 255, 255); stroke: rgb(0, 0, 0);" points="250 450 287 287 250 250">
			</polygon>
			<polygon style="fill: rgb(0, 0, 0); stroke: rgb(0, 0, 0);" points="50 250 213 213 250 250">
			</polygon>
			<polygon style="fill: rgb(255, 255, 255); stroke: rgb(0, 0, 0);" points="50 250 213 287 250 250">
			</polygon>
			<polygon style="fill: rgb(0, 0, 0); stroke: rgb(0, 0, 0);" points="450 250 287 287 250 250">
			</polygon>
			<polygon style="fill: rgb(255, 255, 255); stroke: rgb(0, 0, 0);" points="450 250 287 213 250 250">
			</polygon>
		</g>
	</g>
	<g>
		<polygon style="fill: rgb(255, 255, 255); stroke: rgb(0, 0, 0);" points="250 50 213 213 250 250">
		</polygon>
		<polygon style="fill: rgb(0, 0, 0); stroke: rgb(0, 0, 0);" points="250 50 287 213 250 250">
		</polygon>
		<polygon style="fill: rgb(0, 0, 0); stroke: rgb(0, 0, 0);" points="250 450 213 287 250 250">
		</polygon>
		<polygon style="fill: rgb(255, 255, 255); stroke: rgb(0, 0, 0);" points="250 450 287 287 250 250">
		</polygon>
		<polygon style="fill: rgb(0, 0, 0); stroke: rgb(0, 0, 0);" points="50 250 213 213 250 250">
		</polygon>
		<polygon style="fill: rgb(255, 255, 255); stroke: rgb(0, 0, 0);" points="50 250 213 287 250 250">
		</polygon>
		<polygon style="fill: rgb(0, 0, 0); stroke: rgb(0, 0, 0);" points="450 250 287 287 250 250">
		</polygon>
		<polygon style="fill: rgb(255, 255, 255); stroke: rgb(0, 0, 0);" points="450 250 287 213 250 250">
		</polygon>
	</g>
</svg>
