<svg xmlns="http://www.w3.org/2000/svg" width="264.567" height="264.567" viewBox="0 0 248.031 248.031">
	<g stroke="#000">
		<path d="M76.423 238.386c-2.222-.227-4.722-.682-5.556-1.012s-9.338-2.857-18.9-5.616l-17.535-5.166c-.239-.239 2.279-42.512 2.864-48.081 2.268-21.584 6.048-32.161 14.865-41.586 7.591-8.115 14.922-11.772 27.545-13.739 5.511-.859 39.443-1.231 47.621-.522 13 1.127 21.306 3.104 29.123 6.933 3.946 1.933 5.526 3.088 9.142 6.685 9.42 9.369 13.766 22.358 15.854 47.383 1.166 13.966 2.488 42.597 1.99 43.079-.918.888-17.737 5.597-23.365 6.541-20.441 3.429-70.257 6.467-83.648 5.101z" fill="#030904" stroke-width=".505" />
		<ellipse ry="38.328" rx="40.659" cy="78.773" cx="108.98" fill="#000700" />
	</g>
	<path d="M138.175 68.184c-.957-.151-2.037-.134-3.253.098-8.996 1.713-29.228 2.159-42.287.928-8.051-.759-15.27-.819-16.01-.146-1.698 1.543 1.927 13.988 5.133 17.624 5.614 6.366 21.426 1.417 23.736-7.421 1.279-4.896 5.164-5.135 6.404-.391.51 1.95 2.462 5.114 4.32 7.03 6.45 6.65 22.258 3.166 22.973-5.077.253-2.913.532-3.934 2.185-7.567 1.178-2.587-.332-4.624-3.202-5.077zm-.356 1.513c.295-.125.722-.07 1.169.195.895.531 1.626 1.281 1.626 1.66s-.732.683-1.626.683-1.626-.75-1.626-1.66c0-.455.163-.754.457-.879zm-2.948 7.958c.273.109.285.387 0 .83-.546.849-1.649 1.562-2.49 1.562-2.339 0-1.852-1.11.966-2.148.724-.267 1.252-.354 1.525-.244zm-16.925 5.565c.011-.119.485.222 1.372.976 1.184 1.008 3.138 1.48 4.371 1.025s2.287-.478 2.287-.049c0 2.243-4.968 2.136-6.76-.146-.855-1.089-1.282-1.687-1.271-1.806zM90.302 13.653c-1.465.026-2.815.429-4.422 1.172-4.742 2.192-6.992 7.331-10.826 24.849l-2.643 11.961-8.132 1.074c-8.214 1.085-11.618 4.121-8.285 7.323.936.899 7.425 2.176 14.434 2.88 13.226 1.328 77.117.574 86.2-1.025 5.419-.954 8.527-5.008 5.286-6.932-1.039-.617-5.398-1.557-9.657-2.099-6.824-.87-7.843-1.514-8.539-5.272-2.762-14.926-6.525-27.959-8.793-30.366-2.326-2.468-4.506-2.684-18.45-1.806-10.246.645-17.712.417-21.143-.732-2.026-.678-3.566-1.051-5.032-1.025z" fill="#333" stroke="#333" stroke-width="1.594" />
	<path d="M97.348 121.922l6.938 8.477-10.902 82.89 13.875 12.245 14.867-12.716-7.929-81.948 8.92-8.477z" fill="#e6e6e6" stroke="#e6e6e6" stroke-width="2.095" />
</svg>
